<?xml version="1.0" standalone="no"?>
<!DOCTYPE svg PUBLIC "-//W3C//DTD SVG 20010904//EN"
 "http://www.w3.org/TR/2001/REC-SVG-20010904/DTD/svg10.dtd">
<svg version="1.0" xmlns="http://www.w3.org/2000/svg"
 width="1279.000000pt" height="295.000000pt" viewBox="0 0 1279.000000 295.000000"
 preserveAspectRatio="xMidYMid meet">

<g transform="translate(0.000000,295.000000) scale(0.100000,-0.100000)"
fill="#000000" stroke="none">
<path d="M3375 2871 c-99 -37 -235 -88 -303 -112 l-123 -45 328 -122 328 -123
285 110 c156 60 288 107 292 105 4 -3 8 -93 8 -199 0 -178 -2 -198 -21 -238
-24 -49 -22 -72 12 -127 l21 -34 24 44 c29 56 29 66 3 124 -19 43 -20 62 -17
254 l3 208 -295 112 c-190 72 -307 112 -330 111 -19 -1 -116 -31 -215 -68z
m839 -637 c10 -25 7 -49 -8 -69 -13 -18 -14 -18 -26 4 -9 18 -9 29 0 52 14 32
25 37 34 13z"/>
<path d="M12070 2590 l0 -30 60 0 60 0 0 -175 0 -175 30 0 30 0 0 175 0 175
60 0 60 0 0 30 0 30 -150 0 -150 0 0 -30z"/>
<path d="M12410 2415 l0 -205 30 0 30 0 1 138 c1 75 0 151 -1 167 -3 51 7 25
54 -139 25 -87 47 -160 48 -162 2 -1 15 -5 30 -9 24 -6 28 -3 36 27 5 18 24
89 43 158 l34 125 3 -152 c2 -144 4 -152 23 -158 12 -4 26 -2 33 4 14 15 21
213 11 329 l-7 82 -43 0 c-33 0 -45 -4 -49 -17 -3 -10 -22 -80 -42 -156 -21
-76 -41 -134 -45 -130 -4 4 -19 51 -34 103 -14 52 -33 119 -41 148 l-15 52
-50 0 -49 0 0 -205z"/>
<path d="M735 2573 c-92 -11 -270 -51 -262 -59 2 -2 41 3 88 11 268 47 570
-20 804 -178 32 -22 97 -77 143 -121 186 -179 296 -415 309 -662 16 -302 -91
-571 -311 -782 -205 -197 -442 -298 -723 -309 -252 -10 -468 49 -667 182 -37
25 -70 44 -73 42 -2 -3 20 -25 49 -49 162 -137 373 -231 589 -262 174 -26 310
-18 493 29 236 59 485 225 625 414 244 330 285 737 112 1107 -158 337 -501
580 -894 633 -74 10 -215 12 -282 4z"/>
<path d="M3738 2474 l-147 -54 -147 51 c-97 33 -150 47 -156 41 -6 -6 -13 -31
-15 -56 -7 -60 0 -68 151 -158 172 -102 179 -102 388 34 58 38 109 76 112 84
8 21 -15 114 -28 113 -6 0 -77 -25 -158 -55z"/>
<path d="M2200 2331 l0 -120 48 -3 47 -3 3 -582 2 -583 -50 0 -50 0 0 -120 0
-120 284 0 c250 0 285 2 290 16 8 20 8 138 0 186 l-7 38 -58 0 -59 0 0 179 0
179 31 6 c17 3 48 6 68 6 60 0 170 28 237 59 155 73 230 200 241 411 14 283
-102 466 -347 546 -47 15 -103 18 -367 22 l-313 4 0 -121z m552 -147 c82 -41
124 -188 99 -340 -21 -120 -72 -179 -161 -186 l-35 -3 -3 265 c-1 146 0 270 2
277 6 15 56 8 98 -13z"/>
<path d="M7580 2330 l0 -120 34 0 c68 0 66 6 66 -189 l-1 -176 -37 42 c-51 57
-94 77 -167 77 -144 0 -243 -118 -281 -334 -20 -119 -14 -424 11 -540 20 -93
66 -194 108 -239 89 -93 224 -94 330 -1 l37 32 0 -40 0 -40 75 -7 c42 -4 134
-4 205 0 l130 8 0 87 c0 48 -3 101 -6 118 -6 29 -10 31 -53 34 l-46 3 -3 703
-2 702 -200 0 -200 0 0 -120z m57 -652 c31 -25 38 -83 38 -328 0 -217 -2 -249
-18 -278 -23 -42 -59 -57 -95 -40 -53 26 -57 50 -57 328 0 227 2 259 18 288
26 49 75 61 114 30z"/>
<path d="M1200 1973 c-72 -31 -144 -53 -258 -78 -147 -33 -214 -64 -236 -109
l-16 -34 -62 5 c-101 8 -154 -23 -178 -106 l-9 -31 40 32 c56 45 126 50 205
14 31 -14 58 -25 58 -24 37 74 62 88 201 113 109 19 160 36 217 72 43 27 81
92 76 133 l-3 28 -35 -15z"/>
<path d="M5244 1971 c-140 -36 -238 -153 -280 -336 -15 -62 -19 -119 -19 -255
0 -203 17 -305 69 -415 41 -86 92 -140 165 -174 48 -21 70 -25 151 -25 85 -1
102 3 160 30 36 17 85 51 108 75 43 43 106 151 100 171 -3 7 -229 108 -243
108 -1 0 -8 -20 -15 -45 -19 -68 -44 -95 -89 -95 -76 0 -99 48 -104 215 l-2
90 239 3 239 2 -6 143 c-7 154 -22 228 -63 310 -41 81 -87 130 -156 167 -54
29 -74 34 -143 36 -44 2 -94 -1 -111 -5z m115 -231 c31 -16 51 -83 51 -171 l0
-80 -82 3 -83 3 1 55 c2 96 14 151 39 176 26 26 46 30 74 14z"/>
<path d="M6517 1956 c-102 -43 -156 -96 -200 -197 -73 -164 -87 -470 -31 -687
32 -125 103 -231 184 -272 141 -71 331 -40 443 72 44 45 102 147 95 169 -3 10
-238 113 -243 107 -1 -2 -7 -22 -13 -44 -18 -63 -47 -94 -87 -94 -80 0 -97 33
-103 193 l-4 117 237 0 238 0 -6 143 c-7 202 -41 312 -127 410 -61 68 -133
100 -239 104 -73 3 -95 0 -144 -21z m168 -230 c25 -25 39 -84 39 -176 l1 -55
-82 -3 -83 -3 0 73 c0 156 58 231 125 164z"/>
<path d="M10535 1966 c-107 -27 -191 -86 -250 -176 l-37 -54 139 -32 c124 -28
139 -29 147 -15 40 73 111 93 158 46 31 -31 38 -62 38 -176 l0 -88 -66 31
c-236 110 -452 -85 -431 -388 7 -95 31 -165 81 -233 88 -120 251 -135 373 -35
l43 35 0 -40 0 -41 199 0 199 0 6 44 c4 24 4 78 0 120 l-7 76 -42 0 -43 0 -4
343 c-5 399 -9 419 -87 497 -67 67 -138 92 -266 96 -60 2 -120 -2 -150 -10z
m164 -672 c30 -25 31 -28 31 -115 0 -84 -2 -91 -29 -121 -22 -25 -37 -32 -64
-32 -63 0 -98 48 -99 136 -1 130 83 198 161 132z"/>
<path d="M12313 1965 c-63 -19 -127 -60 -157 -100 -40 -53 -84 -153 -101 -231
-23 -102 -30 -292 -16 -412 35 -302 139 -442 340 -459 161 -13 302 75 372 233
12 25 18 48 16 51 -10 9 -190 84 -216 89 -24 5 -27 2 -39 -40 -15 -56 -43 -86
-81 -86 -44 0 -60 9 -78 43 -16 31 -36 228 -26 254 4 10 55 13 236 13 l230 0
-7 128 c-11 223 -53 350 -146 443 -80 80 -213 110 -327 74z m134 -237 c28 -31
43 -89 43 -170 l0 -68 -80 0 -80 0 0 71 c0 122 29 189 80 189 9 0 26 -10 37
-22z"/>
<path d="M4299 1964 c-15 -3 -51 -19 -80 -37 -148 -89 -231 -360 -201 -657 28
-278 128 -442 302 -494 67 -20 129 -20 203 -1 105 27 167 82 219 191 26 56 57
179 47 187 -2 2 -54 24 -116 49 l-112 47 -7 -57 c-16 -130 -45 -182 -101 -182
-76 0 -99 37 -114 187 -13 124 -6 375 11 446 19 73 76 106 131 77 29 -16 57
-80 70 -159 l12 -71 108 0 109 0 0 230 0 230 -110 0 -109 0 -3 -62 -3 -63 -27
47 c-15 25 -44 56 -63 68 -35 21 -114 33 -166 24z"/>
<path d="M9575 1961 c-76 -19 -153 -88 -199 -180 -58 -113 -71 -189 -71 -401
0 -174 3 -204 23 -275 45 -156 116 -256 215 -305 75 -37 159 -47 242 -30 150
31 229 117 276 298 10 42 16 79 12 83 -5 4 -57 27 -118 52 l-110 45 -7 -54
c-18 -134 -47 -184 -108 -184 -30 0 -43 6 -63 30 -41 48 -49 117 -45 363 3
188 7 229 22 265 20 46 40 62 79 62 57 0 102 -71 114 -180 l6 -58 40 -6 c23
-4 71 -4 109 0 l68 7 0 228 0 229 -110 0 -110 0 0 -62 -1 -63 -19 36 c-46 87
-140 125 -245 100z"/>
<path d="M11855 1961 c-17 -4 -43 -16 -58 -25 -27 -19 -97 -145 -97 -177 0
-10 -4 -21 -10 -24 -6 -4 -10 33 -10 104 l0 111 -205 0 -205 0 0 -125 0 -125
50 0 50 0 0 -330 0 -330 -50 0 -50 0 0 -120 0 -120 270 0 270 0 0 120 0 120
-66 0 -67 0 5 168 c5 138 9 177 27 224 27 71 92 134 148 143 21 4 44 8 51 10
13 5 18 251 6 339 -7 48 -9 49 -59 37z"/>
<path d="M3380 1825 l0 -125 55 0 55 0 -2 -327 -3 -328 -52 -3 -53 -3 0 -120
0 -119 255 0 255 0 0 119 0 120 -47 3 -48 3 -3 453 -2 452 -205 0 -205 0 0
-125z"/>
<path d="M8160 1825 l0 -125 50 0 50 0 0 -297 c0 -325 8 -398 50 -483 49 -97
115 -140 213 -140 68 0 126 20 188 65 27 19 51 35 54 35 3 0 5 -18 5 -40 l0
-40 210 0 210 0 0 120 0 119 -57 3 -58 3 -3 453 -2 452 -195 0 -195 0 0 -125
0 -125 45 0 45 0 0 -287 c0 -159 -3 -297 -6 -308 -7 -28 -69 -68 -105 -68 -19
0 -40 9 -57 27 l-27 26 -3 430 -3 430 -204 0 -205 0 0 -125z"/>
<path d="M1326 1804 c-52 -35 -127 -60 -294 -94 -160 -34 -214 -56 -237 -100
-17 -33 -20 -107 -5 -130 6 -10 10 -11 10 -3 0 19 67 59 135 82 33 11 110 27
170 36 130 19 183 45 219 108 22 38 49 117 43 124 -2 1 -20 -9 -41 -23z"/>
<path d="M580 1645 c-18 -19 -34 -25 -66 -25 -24 0 -46 -4 -49 -10 -3 -5 -1
-10 6 -10 7 0 27 -12 46 -26 36 -27 67 -83 133 -239 48 -114 73 -145 145 -181
112 -54 254 -39 431 45 102 49 105 51 129 103 14 29 25 58 25 65 0 7 -29 -2
-74 -22 -252 -117 -427 -119 -514 -7 -16 20 -48 73 -71 117 -23 44 -58 96 -76
115 -27 28 -32 39 -24 53 11 19 6 47 -9 47 -5 0 -19 -11 -32 -25z"/>
<path d="M1432 1599 c-38 -31 -137 -55 -292 -73 -181 -21 -209 -28 -243 -64
-28 -30 -45 -88 -33 -118 6 -15 8 -15 24 -1 33 30 78 39 248 52 188 14 229 27
277 85 26 31 51 99 45 125 -2 10 -9 9 -26 -6z"/>
</g>
</svg>
