<svg width="61" height="72" viewBox="0 0 61 72" fill="none" xmlns="http://www.w3.org/2000/svg">
<path d="M16.8649 62.1896C16.3364 62.1896 15.9082 61.7614 15.9082 61.2329C15.9082 60.705 16.3364 60.2781 16.8649 60.2781C19.6577 60.2781 21.9305 58.0047 21.9318 55.2099V50.7562C21.9318 50.2276 22.3593 49.8008 22.8872 49.8008C23.4157 49.8008 23.8439 50.2276 23.8439 50.7562V55.2099C23.842 59.0591 20.7115 62.1896 16.8649 62.1896Z" fill="url(#paint0_linear_800_491)"/>
<path d="M16.8649 66.9695C16.3364 66.9695 15.9082 66.5412 15.9082 66.0127C15.9082 65.4848 16.3364 65.0574 16.8649 65.0574C22.2938 65.0574 26.7115 60.6396 26.7121 55.2094V43.9917C26.7115 39.5799 28.4341 35.4291 31.5606 32.3019C34.6879 29.174 38.84 27.4521 43.2498 27.4521H43.2511C43.779 27.4521 44.2065 27.8803 44.2065 28.4081C44.2065 28.936 43.779 29.3642 43.2511 29.3642H43.2498C39.3502 29.3642 35.6787 30.8875 32.9121 33.6527C30.1469 36.4186 28.6236 40.0914 28.6243 43.9917V55.2094C28.6229 61.694 23.3475 66.9695 16.8649 66.9695Z" fill="url(#paint1_linear_800_491)"/>
<path d="M16.8649 71.7511C16.3364 71.7511 15.9082 71.3223 15.9082 70.7944C15.9082 70.2659 16.3364 69.8383 16.8649 69.8383C20.7652 69.8383 24.4367 68.3151 27.2033 65.5485C29.9685 62.782 31.4925 59.1105 31.4911 55.2102V43.9925C31.4925 37.5079 36.7665 32.2324 43.2511 32.2324C43.779 32.2324 44.2065 32.6606 44.2065 33.1892C44.2065 33.717 43.779 34.1452 43.2511 34.1452C37.8223 34.1452 33.4039 38.5623 33.4033 43.9925V55.2102C33.4039 59.6213 31.682 63.7734 28.5541 66.9C25.4262 70.0285 21.2754 71.7511 16.8649 71.7511Z" fill="url(#paint2_linear_800_491)"/>
<path d="M37.2269 49.4015C36.699 49.4015 36.2715 48.9746 36.2715 48.4461V43.9923C36.2721 40.1438 39.4026 37.0127 43.2505 37.0127C43.7783 37.0127 44.2059 37.4409 44.2059 37.9687C44.2059 38.4972 43.7783 38.9254 43.2505 38.9254C40.457 38.9254 38.1836 41.1989 38.1823 43.9923V48.4461C38.1823 48.9746 37.7554 49.4015 37.2269 49.4015Z" fill="url(#paint3_linear_800_491)"/>
<path d="M49.2013 56.5266C47.5908 56.5266 46.2806 55.2164 46.2806 53.6066V46.9134C46.2806 45.3036 47.5908 43.9921 49.2013 43.9921H51.0183C51.697 43.9921 52.3528 44.2354 52.8715 44.663C55.6662 40.3174 57.1403 35.282 57.1403 30.0584C57.1403 22.8236 54.3233 16.0223 49.2072 10.9069C44.0931 5.79214 37.2918 2.97508 30.0577 2.97508C22.8229 2.97508 16.0216 5.79214 10.9069 10.9069C5.7915 16.023 2.9751 22.8243 2.9751 30.0584C2.9751 35.2826 4.44854 40.318 7.2433 44.663C7.76198 44.2354 8.41705 43.9921 9.09574 43.9921H10.9128C12.5239 43.9921 13.8341 45.3036 13.8341 46.9134V53.6066C13.8341 55.2164 12.5239 56.5266 10.9128 56.5266H9.09574C7.48525 56.5266 6.17444 55.2164 6.17444 53.6066V48.3016C2.1351 43.0354 0 36.7305 0 30.0584C0 22.0302 3.12658 14.482 8.80395 8.80394C14.4807 3.12656 22.0288 0 30.0577 0C38.0852 0 45.6341 3.12656 51.3108 8.80394C56.9875 14.4813 60.1147 22.0295 60.1147 30.0584C60.1147 36.7325 57.9803 43.0367 53.9397 48.3016V53.6066C53.9397 55.2164 52.6295 56.5266 51.0183 56.5266H49.2013Z" fill="url(#paint4_linear_800_491)"/>
<defs>
<linearGradient id="paint0_linear_800_491" x1="14.8694" y1="54.1032" x2="24.9977" y2="54.1694" gradientUnits="userSpaceOnUse">
<stop stop-color="#0000FF"/>
<stop offset="0.359375" stop-color="#87CEEB"/>
<stop offset="0.692708" stop-color="#FFA500"/>
<stop offset="1" stop-color="#FF0000"/>
</linearGradient>
<linearGradient id="paint1_linear_800_491" x1="12.204" y1="41.176" x2="48.3204" y2="41.4398" gradientUnits="userSpaceOnUse">
<stop stop-color="#0000FF"/>
<stop offset="0.359375" stop-color="#87CEEB"/>
<stop offset="0.692708" stop-color="#FFA500"/>
<stop offset="1" stop-color="#FF0000"/>
</linearGradient>
<linearGradient id="paint2_linear_800_491" x1="12.204" y1="45.9567" x2="48.3204" y2="46.2206" gradientUnits="userSpaceOnUse">
<stop stop-color="#0000FF"/>
<stop offset="0.359375" stop-color="#87CEEB"/>
<stop offset="0.692708" stop-color="#FFA500"/>
<stop offset="1" stop-color="#FF0000"/>
</linearGradient>
<linearGradient id="paint3_linear_800_491" x1="35.2329" y1="41.3151" x2="45.3595" y2="41.3813" gradientUnits="userSpaceOnUse">
<stop stop-color="#0000FF"/>
<stop offset="0.359375" stop-color="#87CEEB"/>
<stop offset="0.692708" stop-color="#FFA500"/>
<stop offset="1" stop-color="#FF0000"/>
</linearGradient>
<linearGradient id="paint4_linear_800_491" x1="-7.86885" y1="19.6309" x2="68.849" y2="20.4632" gradientUnits="userSpaceOnUse">
<stop stop-color="#0000FF"/>
<stop offset="0.359375" stop-color="#87CEEB"/>
<stop offset="0.692708" stop-color="#FFA500"/>
<stop offset="1" stop-color="#FF0000"/>
</linearGradient>
</defs>
</svg>
