<svg width="132" height="88" viewBox="0 0 132 88" fill="none" xmlns="http://www.w3.org/2000/svg">
<path d="M16.8649 62.1896C16.3364 62.1896 15.9082 61.7614 15.9082 61.2329C15.9082 60.705 16.3364 60.2781 16.8649 60.2781C19.6577 60.2781 21.9305 58.0047 21.9318 55.2099V50.7562C21.9318 50.2276 22.3593 49.8008 22.8872 49.8008C23.4157 49.8008 23.8439 50.2276 23.8439 50.7562V55.2099C23.842 59.0591 20.7115 62.1896 16.8649 62.1896Z" fill="#663399"/>
<path d="M16.8649 66.9695C16.3364 66.9695 15.9082 66.5412 15.9082 66.0127C15.9082 65.4848 16.3364 65.0574 16.8649 65.0574C22.2938 65.0574 26.7115 60.6396 26.7121 55.2094V43.9917C26.7115 39.5799 28.4341 35.4291 31.5606 32.3019C34.6879 29.174 38.84 27.4521 43.2498 27.4521H43.2511C43.779 27.4521 44.2065 27.8803 44.2065 28.4081C44.2065 28.936 43.779 29.3642 43.2511 29.3642H43.2498C39.3502 29.3642 35.6787 30.8875 32.9121 33.6527C30.1469 36.4186 28.6236 40.0914 28.6243 43.9917V55.2094C28.6229 61.694 23.3475 66.9695 16.8649 66.9695Z" fill="#663399"/>
<path d="M16.8649 71.7511C16.3364 71.7511 15.9082 71.3223 15.9082 70.7944C15.9082 70.2659 16.3364 69.8383 16.8649 69.8383C20.7652 69.8383 24.4367 68.3151 27.2033 65.5485C29.9685 62.782 31.4925 59.1105 31.4911 55.2102V43.9925C31.4925 37.5079 36.7665 32.2324 43.2511 32.2324C43.779 32.2324 44.2065 32.6606 44.2065 33.1892C44.2065 33.717 43.779 34.1452 43.2511 34.1452C37.8223 34.1452 33.4039 38.5623 33.4033 43.9925V55.2102C33.4039 59.6213 31.682 63.7734 28.5541 66.9C25.4262 70.0285 21.2754 71.7511 16.8649 71.7511Z" fill="#663399"/>
<path d="M37.2269 49.4015C36.699 49.4015 36.2715 48.9746 36.2715 48.4461V43.9923C36.2721 40.1438 39.4026 37.0127 43.2505 37.0127C43.7783 37.0127 44.2059 37.4409 44.2059 37.9687C44.2059 38.4972 43.7783 38.9254 43.2505 38.9254C40.457 38.9254 38.1836 41.1989 38.1823 43.9923V48.4461C38.1823 48.9746 37.7554 49.4015 37.2269 49.4015Z" fill="#663399"/>
<path d="M49.2013 56.5266C47.5908 56.5266 46.2806 55.2164 46.2806 53.6066V46.9134C46.2806 45.3036 47.5908 43.9921 49.2013 43.9921H51.0183C51.697 43.9921 52.3528 44.2354 52.8715 44.663C55.6662 40.3174 57.1403 35.282 57.1403 30.0584C57.1403 22.8236 54.3233 16.0223 49.2072 10.9069C44.0931 5.79214 37.2918 2.97508 30.0577 2.97508C22.8229 2.97508 16.0216 5.79214 10.9069 10.9069C5.7915 16.023 2.9751 22.8243 2.9751 30.0584C2.9751 35.2826 4.44854 40.318 7.2433 44.663C7.76198 44.2354 8.41705 43.9921 9.09574 43.9921H10.9128C12.5239 43.9921 13.8341 45.3036 13.8341 46.9134V53.6066C13.8341 55.2164 12.5239 56.5266 10.9128 56.5266H9.09574C7.48525 56.5266 6.17444 55.2164 6.17444 53.6066V48.3016C2.1351 43.0354 0 36.7305 0 30.0584C0 22.0302 3.12658 14.482 8.80395 8.80394C14.4807 3.12656 22.0288 0 30.0577 0C38.0852 0 45.6341 3.12656 51.3108 8.80394C56.9875 14.4813 60.1147 22.0295 60.1147 30.0584C60.1147 36.7325 57.9803 43.0367 53.9397 48.3016V53.6066C53.9397 55.2164 52.6295 56.5266 51.0183 56.5266H49.2013Z" fill="#663399"/>
<path d="M36.864 79.144C36.496 79.16 36.208 79.064 36 78.856C35.792 78.648 35.688 78.384 35.688 78.064C35.688 77.824 35.768 77.608 35.928 77.416C36.072 77.224 36.288 77.12 36.576 77.104L37.32 77.056C38.088 76.992 38.672 76.736 39.072 76.288C39.472 75.824 39.672 75.184 39.672 74.368V63.16C39.672 62.744 39.776 62.432 39.984 62.224C40.192 62.016 40.496 61.912 40.896 61.912C41.296 61.912 41.6 62.016 41.808 62.224C42.032 62.432 42.144 62.744 42.144 63.16V74.368C42.144 75.328 41.968 76.152 41.616 76.84C41.28 77.512 40.784 78.04 40.128 78.424C39.472 78.808 38.656 79.032 37.68 79.096L36.864 79.144ZM52.9174 79.216C51.7814 79.216 50.7814 79.072 49.9174 78.784C49.0534 78.48 48.3254 78.032 47.7334 77.44C47.1574 76.848 46.7174 76.112 46.4134 75.232C46.1094 74.352 45.9574 73.336 45.9574 72.184V63.16C45.9574 62.744 46.0614 62.432 46.2694 62.224C46.4934 62.016 46.8054 61.912 47.2054 61.912C47.6054 61.912 47.9094 62.016 48.1174 62.224C48.3414 62.432 48.4534 62.744 48.4534 63.16V72.136C48.4534 73.784 48.8294 75.016 49.5814 75.832C50.3494 76.648 51.4614 77.056 52.9174 77.056C54.3894 77.056 55.5014 76.648 56.2534 75.832C57.0054 75.016 57.3814 73.784 57.3814 72.136V63.16C57.3814 62.744 57.4854 62.432 57.6934 62.224C57.9174 62.016 58.2214 61.912 58.6054 61.912C59.0054 61.912 59.3094 62.016 59.5174 62.224C59.7254 62.432 59.8294 62.744 59.8294 63.16V72.184C59.8294 73.72 59.5654 75.016 59.0374 76.072C58.5254 77.112 57.7574 77.896 56.7334 78.424C55.7094 78.952 54.4374 79.216 52.9174 79.216ZM69.3189 79.216C68.5829 79.216 67.8629 79.16 67.1589 79.048C66.4549 78.936 65.7909 78.768 65.1669 78.544C64.5429 78.304 63.9829 78.016 63.4869 77.68C63.2469 77.504 63.0789 77.304 62.9829 77.08C62.9029 76.856 62.8789 76.64 62.9109 76.432C62.9589 76.208 63.0549 76.016 63.1989 75.856C63.3429 75.696 63.5189 75.6 63.7269 75.568C63.9349 75.52 64.1669 75.584 64.4229 75.76C65.1429 76.224 65.9029 76.568 66.7029 76.792C67.5029 77 68.3749 77.104 69.3189 77.104C70.6789 77.104 71.6789 76.864 72.3189 76.384C72.9749 75.888 73.3029 75.248 73.3029 74.464C73.3029 73.824 73.0709 73.32 72.6069 72.952C72.1429 72.568 71.3669 72.264 70.2789 72.04L67.7109 71.512C66.1909 71.192 65.0549 70.664 64.3029 69.928C63.5669 69.192 63.1989 68.2 63.1989 66.952C63.1989 66.2 63.3509 65.512 63.6549 64.888C63.9749 64.264 64.4149 63.728 64.9749 63.28C65.5349 62.816 66.2069 62.464 66.9909 62.224C67.7749 61.984 68.6309 61.864 69.5589 61.864C70.5509 61.864 71.4789 61.992 72.3429 62.248C73.2229 62.504 74.0069 62.896 74.6949 63.424C74.9029 63.568 75.0389 63.752 75.1029 63.976C75.1829 64.184 75.1989 64.392 75.1509 64.6C75.1189 64.808 75.0309 64.984 74.8869 65.128C74.7429 65.272 74.5589 65.36 74.3349 65.392C74.1109 65.408 73.8629 65.328 73.5909 65.152C72.9669 64.736 72.3269 64.44 71.6709 64.264C71.0309 64.072 70.3189 63.976 69.5349 63.976C68.7509 63.976 68.0629 64.096 67.4709 64.336C66.8949 64.576 66.4469 64.912 66.1269 65.344C65.8229 65.776 65.6709 66.288 65.6709 66.88C65.6709 67.552 65.8869 68.088 66.3189 68.488C66.7509 68.888 67.4709 69.192 68.4789 69.4L71.0229 69.928C72.6229 70.264 73.8149 70.784 74.5989 71.488C75.3829 72.192 75.7749 73.128 75.7749 74.296C75.7749 75.048 75.6229 75.728 75.3189 76.336C75.0149 76.928 74.5829 77.44 74.0229 77.872C73.4629 78.304 72.7829 78.64 71.9829 78.88C71.1989 79.104 70.3109 79.216 69.3189 79.216ZM83.6331 79.168C83.2331 79.168 82.9211 79.056 82.6971 78.832C82.4891 78.608 82.3851 78.296 82.3851 77.896V64.168H77.2971C76.9611 64.168 76.6971 64.08 76.5051 63.904C76.3131 63.712 76.2171 63.448 76.2171 63.112C76.2171 62.776 76.3131 62.52 76.5051 62.344C76.6971 62.168 76.9611 62.08 77.2971 62.08H89.9451C90.2971 62.08 90.5691 62.168 90.7611 62.344C90.9531 62.52 91.0491 62.776 91.0491 63.112C91.0491 63.448 90.9531 63.712 90.7611 63.904C90.5691 64.08 90.2971 64.168 89.9451 64.168H84.8571V77.896C84.8571 78.296 84.7531 78.608 84.5451 78.832C84.3531 79.056 84.0491 79.168 83.6331 79.168ZM99.2183 79.216C97.6183 79.216 96.2183 78.864 95.0183 78.16C93.8343 77.44 92.9143 76.432 92.2583 75.136C91.6183 73.824 91.2983 72.288 91.2983 70.528C91.2983 69.2 91.4823 68.008 91.8503 66.952C92.2183 65.88 92.7463 64.968 93.4342 64.216C94.1223 63.448 94.9543 62.864 95.9303 62.464C96.9063 62.064 98.0023 61.864 99.2183 61.864C100.834 61.864 102.234 62.216 103.418 62.92C104.602 63.624 105.514 64.624 106.154 65.92C106.81 67.216 107.138 68.744 107.138 70.504C107.138 71.832 106.954 73.032 106.586 74.104C106.218 75.176 105.682 76.096 104.978 76.864C104.29 77.632 103.458 78.216 102.482 78.616C101.506 79.016 100.418 79.216 99.2183 79.216ZM99.2183 77.056C100.338 77.056 101.29 76.8 102.074 76.288C102.874 75.776 103.482 75.032 103.898 74.056C104.33 73.08 104.546 71.904 104.546 70.528C104.546 68.464 104.082 66.864 103.154 65.728C102.226 64.592 100.914 64.024 99.2183 64.024C98.0983 64.024 97.1383 64.28 96.3383 64.792C95.5543 65.288 94.9463 66.024 94.5143 67C94.0983 67.976 93.8903 69.152 93.8903 70.528C93.8903 72.576 94.3543 74.176 95.2823 75.328C96.2263 76.48 97.5383 77.056 99.2183 77.056ZM111.732 79.168C111.332 79.168 111.02 79.056 110.796 78.832C110.588 78.608 110.484 78.296 110.484 77.896V63.352C110.484 62.936 110.596 62.624 110.82 62.416C111.044 62.192 111.356 62.08 111.756 62.08H117.492C119.316 62.08 120.724 62.512 121.716 63.376C122.708 64.24 123.204 65.464 123.204 67.048C123.204 68.072 122.98 68.952 122.532 69.688C122.084 70.424 121.428 70.984 120.564 71.368C119.716 71.752 118.692 71.944 117.492 71.944L117.708 71.608H118.332C118.972 71.608 119.524 71.768 119.988 72.088C120.468 72.408 120.9 72.92 121.284 73.624L123.348 77.464C123.508 77.752 123.58 78.032 123.564 78.304C123.564 78.56 123.468 78.768 123.276 78.928C123.1 79.088 122.844 79.168 122.508 79.168C122.156 79.168 121.868 79.096 121.644 78.952C121.436 78.792 121.244 78.56 121.068 78.256L118.548 73.6C118.212 72.976 117.828 72.56 117.396 72.352C116.964 72.128 116.396 72.016 115.692 72.016H112.98V77.896C112.98 78.296 112.876 78.608 112.668 78.832C112.46 79.056 112.148 79.168 111.732 79.168ZM112.98 70.144H117.084C118.3 70.144 119.22 69.888 119.844 69.376C120.468 68.864 120.78 68.104 120.78 67.096C120.78 66.104 120.468 65.352 119.844 64.84C119.22 64.328 118.3 64.072 117.084 64.072H112.98V70.144ZM127.974 79.168C127.574 79.168 127.262 79.056 127.038 78.832C126.83 78.608 126.726 78.296 126.726 77.896V63.184C126.726 62.768 126.83 62.456 127.038 62.248C127.262 62.024 127.574 61.912 127.974 61.912C128.374 61.912 128.678 62.024 128.886 62.248C129.11 62.456 129.222 62.768 129.222 63.184V77.896C129.222 78.296 129.118 78.608 128.91 78.832C128.702 79.056 128.39 79.168 127.974 79.168Z" fill="#663399"/>
</svg>
