<svg id="Capa_1" enable-background="new 0 0 479.784 479.784" height="512" viewBox="0 0 479.784 479.784" width="512" xmlns="http://www.w3.org/2000/svg"><g><path d="m474.78 299.368-15.325 18.655-67.383-4.081-343.022 2.15-41.515-7.642-7.535-17.848c130.25-12.864 298.674.277 474.78 8.766z" fill="#da364c"/><path d="m479.493 265.817-4.707 33.556-350.169-10.453-79.846 9.889-44.771-8.207v-17.537l6.903-6.903 3.545-31.524v-13.225c0-6.508 2.354-12.797 6.627-17.707l27.093-31.152c5.888-6.817 13.633-11.773 22.29-14.263 35.283-10.092 132.644-32.946 205.705-2.935 90.875 37.31 96.446 44.591 96.446 44.591s78.548 4.318 106.471 46.132c3.836 5.818 5.406 12.84 4.413 19.738z" fill="#ef5261"/><path d="m178.409 150.118v64.939h-90.006c-4.48-.084-8.506-2.756-10.324-6.852l-11.56-26.139c-2.613-5.746-.074-12.523 5.672-15.136.519-.236 1.055-.433 1.603-.589 9.9-2.749 24.237-6.209 41.503-9.268 2.929-.564 5.944-1.027 9.031-1.541 3.387-.514 6.943-1.027 10.532-1.541 7.609-1.027 15.573-1.93 23.848-2.596 6.391-.583 13.001-1.006 19.701-1.277z" fill="#69b0ee"/><path d="m361.937 215.057h-169.97v-65.3c18.15.179 36.227 2.335 53.91 6.429 2.534.604 4.978 1.236 7.428 1.93 2.897.847 5.735 1.752 8.512 2.715 2.822.965 5.616 1.992 8.331 3.11 3.77 1.541 7.338 3.048 10.803 4.516 12.796 5.402 23.515 10.205 32.506 14.461 17.602 8.36 33.926 19.181 48.48 32.139z" fill="#69b0ee"/><circle cx="86.551" cy="299.368" fill="#414451" r="39.985"/><circle cx="86.551" cy="299.368" fill="#dbd8dd" r="22.476"/><circle cx="86.551" cy="299.368" fill="#575b6d" r="7.383"/><circle cx="383.865" cy="299.368" fill="#414451" r="39.985"/><circle cx="383.865" cy="299.368" fill="#dbd8dd" r="22.476"/><circle cx="383.865" cy="299.368" fill="#575b6d" r="7.383"/><path d="m23.351 260.568c.057 3.036-2.359 5.543-5.394 5.599-.066.001-.133.001-.199 0h-10.861l3.545-31.524v-5.977h4.516c3.036-.054 5.54 2.364 5.594 5.4.001.066.001.133 0 .199z" fill="#eeefee"/><ellipse cx="455.335" cy="252.727" fill="#f6c863" rx="11.182" ry="20.427" transform="matrix(.727 -.687 .687 .727 -49.125 382.036)"/><path d="m218.614 226.651h15.624c2.575 0 4.662 2.087 4.662 4.662 0 2.575-2.087 4.662-4.662 4.662h-15.624c-2.575 0-4.662-2.087-4.662-4.662-.001-2.575 2.087-4.662 4.662-4.662z" fill="#575b6d"/><path d="m98.439 226.651h15.624c2.575 0 4.662 2.087 4.662 4.662 0 2.575-2.087 4.662-4.662 4.662h-15.624c-2.575 0-4.662-2.087-4.662-4.662-.001-2.575 2.087-4.662 4.662-4.662z" fill="#575b6d"/><g fill="#eeefee"><g opacity=".5"><path d="m253.299 158.116-26.393 56.941h-8.348l27.319-58.86c2.534.593 4.978 1.225 7.422 1.919z"/><path d="m280.951 168.44-21.612 46.617h-22.669l25.146-54.186c2.822.965 5.616 1.992 8.331 3.11 3.771 1.501 7.36 3.008 10.804 4.459z"/></g><g opacity=".5"><path d="m124.318 155.52-27.618 59.537h-8.297l26.896-57.985c2.923-.553 5.943-1.038 9.019-1.552z"/><path d="m158.698 151.383-29.548 63.675h-22.64l28.346-61.061c7.603-1.028 15.573-1.948 23.842-2.614z"/></g></g></g></svg>