<svg id="Layer_1" enable-background="new 0 0 512 512" viewBox="0 0 512 512" xmlns="http://www.w3.org/2000/svg"><g clip-rule="evenodd"><g fill-rule="evenodd"><g><path d="m409.782 378.128h18.402v93.63c0 2.673-2.18 4.853-4.853 4.853h-8.695c-2.673 0-4.853-2.18-4.853-4.853v-93.63z" fill="#685e68"/><path d="m409.782 400.754c-4.289 0-7.766-3.477-7.766-7.766s3.477-7.766 7.766-7.766h57.932c5.353 0 10.226-2.196 13.763-5.733s5.733-8.41 5.733-13.763v-100.186c0-4.289 3.477-7.766 7.766-7.766s7.766 3.477 7.766 7.766v100.187c0 9.64-3.938 18.4-10.283 24.745-6.345 6.344-15.104 10.283-24.744 10.283h-57.933z" fill="#837683"/></g><g><path d="m102.218 379.503h-18.402v93.63c0 2.673 2.18 4.854 4.853 4.854h8.695c2.673 0 4.854-2.18 4.854-4.854z" fill="#685e68"/><path d="m102.218 386.598c4.289 0 7.766 3.477 7.766 7.766s-3.477 7.766-7.766 7.766h-57.932c-9.641 0-18.399-3.939-24.744-10.283-6.345-6.345-10.283-15.104-10.283-24.744v-100.188c0-4.289 3.477-7.766 7.766-7.766s7.766 3.477 7.766 7.766v100.187c0 5.353 2.195 10.226 5.733 13.763 3.537 3.537 8.409 5.733 13.763 5.733z" fill="#837683"/></g><g><g><path d="m424.63 336.277c0 7.18-5.907 13.087-13.087 13.087h-7.192c-31.263 0-46.232 21.727-56.711 56.712l-21.129 70.536h25.284c4.374 0 8.08-2.774 9.313-6.97l18.683-63.566c2.16-7.349 5.907-13.087 13.087-13.087h18.666c31.263 0 56.712-25.449 56.712-56.711v-77.133c0-11.977-9.769-21.747-21.746-21.747-12.055 0-21.878 9.659-21.878 21.747v77.132z" fill="#ffe177"/><path d="m342.087 476.612h9.707c4.374 0 8.08-2.774 9.313-6.97l18.683-63.566c2.16-7.349 5.906-13.087 13.087-13.087h-9.708c-7.18 0-10.927 5.738-13.087 13.087l-18.682 63.565c-1.233 4.197-4.939 6.971-9.313 6.971zm59.748-83.623h9.707c31.262 0 56.712-25.449 56.712-56.712v-77.133c0-11.977-9.769-21.747-21.747-21.747-1.677 0-3.312.188-4.882.542 9.668 2.205 16.921 10.885 16.921 21.205v77.133c.001 31.262-25.448 56.712-56.711 56.712z" fill="#ffd064"/></g><g><path d="m406.463 308.315c2.587-.011 5.204-.726 7.543-2.227l28.146-18.162c6.49-4.166 8.375-12.805 4.209-19.295s-12.805-8.375-19.295-4.209l-24.673 15.921h-65.795c-7.728 0-13.993 6.265-13.993 13.993s6.265 13.993 13.993 13.993z" fill="#f6dccd"/><path d="m406.463 308.315c2.587-.011 5.204-.726 7.543-2.227l28.146-18.161c5.628-3.612 7.791-10.587 5.552-16.609-1.015 2.746-2.898 5.197-5.552 6.901l-28.146 18.161c-2.339 1.501-4.956 2.217-7.543 2.227l-69.866.014c-6.021 0-11.154-3.804-13.128-9.139-.56 1.512-.866 3.147-.866 4.854 0 7.728 6.265 13.993 13.993 13.993z" fill="#f1cbbc"/></g><g><circle cx="446.442" cy="198.704" fill="#f6dccd" r="27.682"/><path d="m446.442 171.022c-1.656 0-3.278.146-4.854.425 12.974 2.295 22.829 13.625 22.829 27.258s-9.855 24.962-22.829 27.257c1.576.279 3.198.425 4.854.425 15.288 0 27.682-12.394 27.682-27.682 0-15.289-12.394-27.683-27.682-27.683z" fill="#f1cbbc"/></g></g><g><g><path d="m87.371 337.652c0 7.18 5.907 13.087 13.087 13.087h7.192c31.263 0 46.232 21.727 56.711 56.712l21.129 70.536h-25.285c-4.374 0-8.08-2.774-9.313-6.97l-18.682-63.567c-2.16-7.349-5.907-13.087-13.087-13.087h-18.666c-31.263 0-56.712-25.449-56.712-56.711v-77.133c0-11.978 9.769-21.747 21.746-21.747 12.055 0 21.878 9.659 21.878 21.747v77.133z" fill="#8ac9fe"/><path d="m169.913 477.986h-9.707c-4.374 0-8.08-2.774-9.313-6.97l-18.683-63.566c-2.16-7.349-5.907-13.087-13.087-13.087h9.708c7.18 0 10.927 5.738 13.087 13.087l18.683 63.566c1.233 4.196 4.939 6.97 9.312 6.97zm-59.748-83.623h-9.707c-31.262 0-56.712-25.449-56.712-56.712v-77.133c0-11.978 9.769-21.747 21.747-21.747 1.677 0 3.312.188 4.882.542-9.668 2.205-16.921 10.885-16.921 21.205v77.133c-.001 31.263 25.449 56.712 56.711 56.712z" fill="#60b7ff"/></g><g><path d="m105.537 309.689c-2.587-.011-5.204-.726-7.543-2.227l-28.145-18.162c-6.49-4.166-8.375-12.805-4.209-19.295s12.805-8.375 19.295-4.209l24.673 15.921h65.795c7.728 0 13.993 6.265 13.993 13.993s-6.265 13.993-13.993 13.993z" fill="#f6dccd"/><path d="m105.537 309.689c-2.587-.011-5.204-.726-7.543-2.227l-28.146-18.162c-5.628-3.612-7.791-10.587-5.552-16.608 1.015 2.746 2.898 5.197 5.552 6.901l28.146 18.161c2.339 1.501 4.956 2.217 7.543 2.227l69.866.014c6.021 0 11.154-3.804 13.128-9.139.56 1.512.865 3.147.865 4.854 0 7.728-6.265 13.993-13.993 13.993z" fill="#f1cbbc"/></g><g><ellipse cx="65.558" cy="200.079" fill="#f6dccd" rx="27.682" ry="27.682" transform="matrix(.987 -.16 .16 .987 -31.203 13.085)"/><path d="m65.558 172.397c1.656 0 3.278.146 4.854.425-12.974 2.295-22.829 13.625-22.829 27.258 0 13.632 9.855 24.962 22.829 27.257-1.576.279-3.198.425-4.854.425-15.288 0-27.682-12.394-27.682-27.682 0-15.29 12.394-27.683 27.682-27.683z" fill="#f1cbbc"/></g></g><g><g><path d="m181.071 307.605h150.201v164.942c0 4.974-4.057 9.031-9.031 9.031h-132.139c-4.974 0-9.031-4.057-9.031-9.031z" fill="#e3a76f"/><path d="m321.236 307.605h10.036v164.942c0 4.974-4.057 9.031-9.031 9.031h-10.035c4.974 0 9.031-4.057 9.031-9.031v-164.942z" fill="#c48958"/></g><g><path d="m163.977 307.596h184.388c2.362 0 4.287 1.873 4.287 4.17v11.686c0 2.297-1.926 4.17-4.287 4.17h-184.388c-2.362 0-4.287-1.873-4.287-4.17v-11.686c0-2.296 1.926-4.17 4.287-4.17z" fill="#e3a76f"/><path d="m352.653 317.609v5.843c0 2.297-1.926 4.17-4.287 4.17h-184.389c-2.362 0-4.287-1.873-4.287-4.17v-5.843z" fill="#ecba78"/></g></g></g><g><g fill-rule="evenodd"><path d="m274.712 146.553c0-26.945 0-73.059 0-100.003 0-8.883 7.245-16.128 16.128-16.128h118.129c8.883 0 16.128 7.245 16.128 16.128v100.003c0 8.883-7.245 16.128-16.128 16.128h-13.648v20.432c0 4.507-5.483 6.714-8.605 3.464l-22.955-23.896h-72.92c-8.884 0-16.129-7.245-16.129-16.128z" fill="#6cf5c2"/><path d="m398.969 30.422h10c8.883 0 16.128 7.245 16.128 16.128v100.003c0 8.883-7.245 16.128-16.128 16.128h-10c8.883 0 16.128-7.245 16.128-16.128 0-26.944 0-73.058 0-100.003-.001-8.883-7.246-16.128-16.128-16.128zm-3.648 132.259v20.432c0 4.507-5.483 6.714-8.605 3.464l-1.683-1.752c.185-.522.288-1.095.288-1.712v-20.432z" fill="#00e499"/></g><path d="m306.54 96.552h86.728m-86.728-32.413h86.728m-86.728 64.825h86.728" style="fill:none;stroke:#eceff1;stroke-width:16;stroke-linecap:round;stroke-linejoin:round;stroke-miterlimit:2.613"/></g><g fill-rule="evenodd"><g><path d="m239.465 136.527c0-26.945 0-53.889 0-80.833 0-8.883-7.245-16.128-16.128-16.128-39.376 0-78.752 0-118.128 0-8.883 0-16.128 7.245-16.128 16.128v80.833c0 8.883 7.245 16.128 16.128 16.128h13.648v20.432c0 4.507 5.484 6.714 8.605 3.464l22.955-23.896h72.92c8.883 0 16.128-7.245 16.128-16.128z" fill="#ecba78"/><path d="m239.465 136.527c0-26.945 0-53.889 0-80.833 0-8.883-7.245-16.128-16.128-16.128h-10c8.883 0 16.128 7.245 16.128 16.128v80.833c0 8.883-7.245 16.128-16.128 16.128h10c8.883 0 16.128-7.245 16.128-16.128zm-120.321 38.272c1.168 3.296 5.623 4.558 8.317 1.752l22.955-23.896h-10z" fill="#e3a76f"/></g><path d="m125.115 104.11c-4.418 0-8-3.582-8-8s3.582-8 8-8h78.314c4.418 0 8 3.582 8 8s-3.582 8-8 8zm0 30.078c-4.418 0-8-3.582-8-8s3.582-8 8-8h78.314c4.418 0 8 3.582 8 8s-3.582 8-8 8zm0-60.155c-4.418 0-8-3.582-8-8s3.582-8 8-8h78.314c4.418 0 8 3.582 8 8s-3.582 8-8 8z" fill="#eceff1"/></g></g></svg>