<svg width="90" height="90" viewBox="0 0 90 90" fill="none" xmlns="http://www.w3.org/2000/svg">
<circle cx="45" cy="45" r="45" fill="white"/>
<path d="M56.6123 60.0744C55.6032 59.7193 54.5601 59.3525 53.6424 58.9247C52.4247 58.3563 51.6981 57.2159 51.6981 55.8728V55.2457C53.3494 53.9975 54.5437 52.1751 54.982 50.0783H55.5844C57.1948 50.0783 58.5051 48.768 58.5051 47.1577V44.6296C58.5051 44.6144 58.5039 44.6003 58.5039 44.5863C58.5039 44.5792 58.5051 44.5722 58.5051 44.5652C58.5063 43.9639 58.5168 43.3756 58.5274 42.8072C58.5719 40.4327 58.6106 38.3828 57.8828 36.7572C57.0577 34.9137 55.4133 33.9186 52.7212 33.6373L53.5862 32.4114C53.9612 31.8793 54.0057 31.1925 53.7034 30.6182C53.401 30.0346 52.8279 29.6865 52.168 29.6865H44.8969C42.0688 29.6865 39.4083 30.5901 37.4089 32.2298C35.2254 34.0194 34.0241 36.5744 34.0241 39.4236V44.6296V47.1577C34.0241 48.768 35.3344 50.0783 36.9448 50.0783H37.5507C37.9937 52.1962 39.2067 54.0339 40.8851 55.2832V55.8716C40.8851 57.2135 40.1584 58.3551 38.9419 58.9223C38.023 59.3501 36.9799 59.717 35.9708 60.0721C32.3845 61.3332 28.3211 62.763 28.3211 67.6116V73.2725C28.3211 74.2253 29.097 75 30.0522 75H62.5333C63.4862 75 64.2609 74.2253 64.2609 73.2725V67.6116C64.2585 62.7654 60.1963 61.3355 56.6123 60.0744ZM56.6311 47.1588C56.6311 47.7355 56.1622 48.2055 55.5844 48.2055H55.166V43.5842H55.5844C56.1611 43.5842 56.6311 44.053 56.6311 44.6308V47.1588ZM37.3655 48.2055H36.9436C36.367 48.2055 35.897 47.7366 35.897 47.1588V44.6308C35.897 44.0542 36.3658 43.5842 36.9436 43.5842H37.3655V48.2055ZM37.6081 41.7102H36.9424C36.5732 41.7102 36.2216 41.7793 35.8958 41.9047V39.4247C35.8958 34.262 40.4233 31.5605 44.8957 31.5605H51.8926L51.0476 32.756C50.6854 33.267 50.628 33.9128 50.8941 34.4894C51.1578 35.0531 51.6875 35.4235 52.3122 35.4809C56.3509 35.8313 56.7119 37.6269 56.665 41.9188C56.3298 41.784 55.9654 41.7102 55.5821 41.7102H54.9199C54.4195 40.4631 53.1982 39.5806 51.7742 39.5806H51.1331C50.6186 39.5806 50.1967 39.4529 49.7677 39.1681L48.6719 38.4344C47.187 37.4405 45.3411 37.4393 43.8561 38.4344L42.7568 39.1692C42.329 39.4552 41.9082 39.583 41.3937 39.583H40.7491C39.3286 39.5806 38.1086 40.4631 37.6081 41.7102ZM39.2396 48.2957V42.9701C39.2396 42.1344 39.9182 41.4547 40.7515 41.4547H41.3961C42.2798 41.4547 43.0662 41.2156 43.7999 40.7257L44.9004 39.9908C45.7559 39.4189 46.7768 39.4177 47.6323 39.9908L48.7317 40.7268C49.4689 41.2167 50.2553 41.4547 51.1378 41.4547H51.7789C52.6146 41.4547 53.2943 42.1344 53.2943 42.9701V48.2957C53.2943 50.6397 52.1083 52.7107 50.3057 53.9436C50.2682 53.9647 50.233 53.9882 50.199 54.0139C49.1231 54.7207 47.8374 55.1332 46.458 55.1332H46.0794C44.7152 55.1332 43.4447 54.73 42.377 54.0397C42.3419 54.0139 42.3055 53.9905 42.268 53.9694C40.4409 52.7388 39.2396 50.655 39.2396 48.2957ZM51.0546 59.2763C50.1967 61.121 48.3461 62.3247 46.2892 62.3247C44.2312 62.3247 42.3817 61.1199 41.5262 59.2763C42.2223 58.4688 42.6443 57.4573 42.7368 56.3392C43.7659 56.7682 44.8945 57.0061 46.0771 57.0061H46.4556C47.657 57.0061 48.802 56.7623 49.8439 56.3205C49.9318 57.4456 50.3549 58.4641 51.0546 59.2763ZM62.3856 73.1295H56.0169V70.4221C56.0169 69.9041 55.5973 69.4857 55.0805 69.4857C54.5636 69.4857 54.144 69.9053 54.144 70.4221V73.1295H38.4391V70.4221C38.4391 69.9041 38.0195 69.4857 37.5026 69.4857C36.9858 69.4857 36.5662 69.9053 36.5662 70.4221V73.1295H30.194V67.6152C30.194 64.33 32.6107 63.2435 36.592 61.843C37.6433 61.4726 38.7309 61.0906 39.733 60.6241C39.8349 60.576 39.9334 60.5245 40.0318 60.4717C41.2648 62.7419 43.651 64.1999 46.2904 64.1999C48.9286 64.1999 51.316 62.7408 52.5513 60.4717C52.6497 60.5245 52.7482 60.576 52.8513 60.6241C53.8522 61.0906 54.9398 61.4738 55.9911 61.8442C59.9701 63.2447 62.3868 64.3312 62.3868 67.6163V73.1295H62.3856ZM71.6387 56.4881C71.7524 56.2572 71.8989 56.0368 72.0817 55.8235C72.2469 55.6302 72.4157 55.4415 72.5798 55.2575C73.6686 54.0397 74.7949 52.7798 74.7949 50.1217C74.7949 46.1122 71.532 42.8494 67.5226 42.8494C63.5131 42.8494 60.2502 46.1122 60.2502 50.1217C60.2502 52.7798 61.3765 54.0397 62.4653 55.2575C62.6294 55.4403 62.7982 55.6302 62.9646 55.8247C63.1463 56.0357 63.2916 56.256 63.4053 56.4869C62.7595 56.8901 62.327 57.605 62.327 58.4207C62.327 59.356 62.8943 60.1612 63.703 60.5116V61.0648C63.703 62.2989 64.7062 63.3045 65.9392 63.3045H69.1083C70.3413 63.3045 71.3445 62.3001 71.3445 61.0648V60.5116C72.1532 60.1612 72.7204 59.356 72.7204 58.4207C72.7169 57.605 72.2845 56.8901 71.6387 56.4881ZM69.4681 61.0659C69.4681 61.264 69.3028 61.4316 69.106 61.4316H65.9368C65.7411 61.4316 65.5747 61.264 65.5747 61.0659V60.7003H69.4681V61.0659ZM70.4385 58.8262H64.6043C64.3804 58.8262 64.1987 58.6446 64.1987 58.4207C64.1987 58.2086 64.3722 58.0293 64.582 58.0175C64.6043 58.0175 64.6265 58.0175 64.65 58.0152H70.3916C70.4174 58.0175 70.4432 58.0187 70.469 58.0187H70.4702C70.6753 58.0363 70.8429 58.2121 70.8429 58.4207C70.844 58.6446 70.6612 58.8262 70.4385 58.8262ZM71.1816 54.0093C71.0105 54.2003 70.8347 54.3984 70.6565 54.6058C70.2545 55.0746 69.9545 55.5903 69.7552 56.1423H68.4578V52.5841L70.0529 50.9913C70.4186 50.6257 70.4198 50.0326 70.0541 49.667C69.6884 49.3013 69.0954 49.3001 68.7297 49.6658L67.5214 50.8718L66.313 49.6658C65.9474 49.3001 65.3532 49.3013 64.9887 49.667C64.623 50.0326 64.6242 50.6268 64.9898 50.9913L66.585 52.5841V56.1423H65.2875C65.0883 55.5903 64.7883 55.0746 64.3874 54.6082C64.2081 54.3984 64.0311 54.2003 63.8612 54.0093C62.8521 52.8806 62.1231 52.0661 62.1231 50.1229C62.1231 47.146 64.5445 44.7246 67.5214 44.7246C70.4983 44.7246 72.9197 47.146 72.9197 50.1229C72.9197 52.0649 72.1907 52.8806 71.1816 54.0093ZM24.4581 47.8761C21.5914 47.8761 19.2591 50.2084 19.2591 53.0752C19.2591 55.9419 21.5914 58.2742 24.4581 58.2742C27.3249 58.2742 29.6572 55.9419 29.6572 53.0752C29.6584 50.2084 27.3249 47.8761 24.4581 47.8761ZM24.4581 56.4013C22.6239 56.4013 21.1331 54.9094 21.1331 53.0763C21.1331 51.2421 22.6251 49.7502 24.4581 49.7502C26.2912 49.7502 27.7831 51.2421 27.7831 53.0763C27.7843 54.9094 26.2923 56.4013 24.4581 56.4013ZM53.7491 24.6058L55.963 26.2091L55.1156 28.804C54.9094 29.4322 55.1297 30.1143 55.6641 30.5022C55.9302 30.6956 56.2419 30.7929 56.5549 30.7929C56.8678 30.7929 57.1807 30.6956 57.4479 30.501L59.6537 28.8907L61.8641 30.5022C62.3927 30.8866 63.1064 30.8878 63.6455 30.5022C64.18 30.1143 64.4015 29.431 64.1952 28.804L63.3443 26.208L65.5594 24.6046C66.0892 24.2202 66.3119 23.5416 66.1115 22.9064C65.9064 22.2829 65.3274 21.8633 64.6675 21.8633L61.9356 21.8692L61.0952 19.2685C60.8913 18.6403 60.3112 18.2183 59.6525 18.2183C58.9938 18.2183 58.4137 18.6403 58.2098 19.2685V19.2708L57.3729 21.8692L54.6398 21.8633C53.9823 21.8633 53.4033 22.2829 53.1982 22.9064C52.9931 23.5346 53.2135 24.2167 53.7491 24.6058ZM58.055 23.7444H58.0574C58.4641 23.7444 58.8239 23.4819 58.9493 23.0951L59.656 20.9011L60.3651 23.0963C60.4905 23.483 60.8503 23.7456 61.257 23.7456H61.2593L63.5623 23.7409L61.6953 25.0922C61.366 25.3313 61.2277 25.7556 61.3543 26.1423L62.0715 28.3328L60.208 26.9745C60.044 26.8549 59.8494 26.794 59.656 26.794C59.4626 26.794 59.2681 26.8537 59.104 26.9745L57.244 28.3328L57.9589 26.1411C58.0855 25.7544 57.9472 25.3301 57.6179 25.091L55.7509 23.7397L58.055 23.7444ZM40.4116 21.3863L42.6243 22.9861L41.7746 25.5809C41.5695 26.2033 41.7875 26.8854 42.3231 27.2827C42.5903 27.4772 42.9033 27.5733 43.2139 27.5733C43.528 27.5733 43.8409 27.4749 44.1058 27.2792L46.315 25.6712L48.5149 27.2745C49.0481 27.6695 49.7666 27.673 50.3127 27.278C50.8413 26.8854 51.0581 26.2044 50.8542 25.5833L50.0068 22.9873L52.2219 21.3863C52.7564 20.9984 52.9779 20.3162 52.7716 19.6869C52.5653 19.061 51.9911 18.6438 51.3488 18.6438C51.3418 18.6438 51.3359 18.6438 51.3289 18.6438L48.5969 18.6461L47.7566 16.0431C47.5515 15.4196 46.9725 15 46.315 15C45.6575 15 45.0785 15.4196 44.8734 16.0431C44.8734 16.0443 44.8723 16.0454 44.8723 16.0478L44.0319 18.6473L41.3105 18.645C40.646 18.6368 40.0647 19.0552 39.8572 19.688C39.856 19.6916 39.8549 19.6963 39.8537 19.6998C39.6568 20.3233 39.8807 21.0019 40.4116 21.3863ZM44.7129 20.5214C44.714 20.5214 44.714 20.5214 44.7129 20.5214C45.1207 20.5214 45.4805 20.2588 45.6048 19.8721L46.3138 17.6769L47.0205 19.8709C47.1448 20.2576 47.5058 20.5202 47.9125 20.5202H47.9136L50.2213 20.5178L48.3543 21.868C48.0238 22.1071 47.8855 22.5314 48.0121 22.9181L48.7282 25.111L46.867 23.7538C46.5377 23.5147 46.0923 23.5135 45.7642 23.7538L43.8995 25.111L44.6168 22.9193C44.7433 22.5325 44.605 22.1071 44.2757 21.868L42.4087 20.519L44.7129 20.5214ZM30.6253 60.283L31.6648 59.2435C32.0856 58.8227 32.1876 58.184 31.9157 57.6519L31.5148 56.8713C31.768 56.4013 31.9743 55.9032 32.1313 55.3852L32.9681 55.1156C33.533 54.9305 33.9128 54.4077 33.9128 53.8135V52.3415C33.9128 51.7473 33.533 51.2246 32.967 51.0382L32.129 50.7663C31.9743 50.2518 31.7692 49.756 31.5148 49.2837L31.9157 48.502C32.1829 47.9781 32.0856 47.3405 31.6719 46.9174C31.6684 46.9139 31.666 46.9116 31.6625 46.908L30.6241 45.8731C30.2022 45.4512 29.5623 45.3504 29.0313 45.6212L28.2496 46.0197C27.7749 45.7642 27.2768 45.5579 26.7658 45.4055L26.4928 44.5675C26.3076 44.0026 25.7849 43.6229 25.1906 43.6229H23.7245C23.1232 43.6229 22.6005 44.005 22.42 44.5734L22.1493 45.4055C21.6301 45.5602 21.1308 45.7677 20.6632 46.0208L19.8803 45.6223C19.3458 45.3504 18.7071 45.4524 18.2887 45.8767L17.2514 46.9116C16.8295 47.3335 16.7287 47.9734 16.9995 48.5043L17.3991 49.2896C17.1471 49.7584 16.9409 50.2541 16.785 50.7686L15.94 51.0441C15.3786 51.2316 15 51.7543 15 52.345V53.817C15 54.4077 15.3774 54.9305 15.9482 55.1203L16.7838 55.3899C16.9373 55.9009 17.1424 56.3966 17.3991 56.8725L16.9983 57.6577C16.7252 58.1945 16.8295 58.8368 17.2503 59.247L18.2816 60.2784C18.7 60.7073 19.3423 60.8116 19.8791 60.5385L20.662 60.1401C21.1413 60.3967 21.6406 60.6042 22.1481 60.7554L22.4177 61.584C22.597 62.1547 23.122 62.5392 23.7233 62.5392H25.1918C25.7825 62.5392 26.3052 62.1618 26.4951 61.5934L26.767 60.7565C27.2745 60.6042 27.7714 60.3979 28.2496 60.1424L29.0325 60.5409C29.5646 60.8058 30.2045 60.705 30.6253 60.283ZM27.5499 58.3809C27.0612 58.6633 26.549 58.8766 26.0251 59.0126C26.0216 59.0138 26.0181 59.0149 26.0157 59.0149C25.5622 59.138 25.2082 59.4767 25.0688 59.915L24.8262 60.6604H24.089L23.8487 59.9209C23.7069 59.4779 23.3529 59.1392 22.89 59.0126C22.3626 58.8755 21.8492 58.6621 21.3687 58.3844C20.962 58.1441 20.4686 58.1301 20.0514 58.3434L19.3552 58.6985L18.8337 58.1769L19.1876 57.4819C19.4021 57.0612 19.3892 56.5689 19.1524 56.1669C18.87 55.6852 18.6579 55.1731 18.5172 54.6328C18.3941 54.1839 18.0707 53.8405 17.63 53.6905C17.6253 53.6893 17.6206 53.687 17.6159 53.6858L16.874 53.4467V52.7072L17.6124 52.4669C18.066 52.3227 18.4047 51.9641 18.5219 51.507C18.6661 50.9691 18.8794 50.4581 19.1536 49.9893C19.3915 49.5849 19.4056 49.0927 19.1911 48.6731L18.8348 47.9757L19.3564 47.4554L20.0525 47.8105L20.0666 47.8175C20.4862 48.0226 20.9597 48.0074 21.3711 47.7695C21.841 47.4929 22.352 47.2807 22.8994 47.1389C23.3482 47.017 23.7022 46.6807 23.8463 46.2388L24.089 45.4934H24.8262L25.0688 46.2388C25.2117 46.6795 25.5657 47.0159 26.0251 47.1413C26.5572 47.2796 27.0694 47.4917 27.5523 47.7742C27.9554 48.0062 28.4266 48.0214 28.8462 47.8175C28.8508 47.8152 28.8555 47.8128 28.8602 47.8105L29.5587 47.4542L30.0815 47.9746L29.724 48.6707C29.7216 48.6766 29.7181 48.6825 29.7158 48.6872C29.5119 49.1056 29.5294 49.5919 29.7627 49.9869C30.0404 50.4616 30.2526 50.9726 30.3932 51.5117C30.5139 51.9629 30.8503 52.3192 31.2945 52.4634L32.0399 52.706V53.4455L31.298 53.6846C31.291 53.687 31.2839 53.6893 31.2769 53.6916C30.8386 53.844 30.5104 54.1991 30.3967 54.6421C30.2526 55.1813 30.0404 55.6946 29.765 56.1634C29.5306 56.5607 29.513 57.0471 29.717 57.4655C29.7193 57.4714 29.7228 57.4772 29.7252 57.4819L30.0815 58.1769L29.5599 58.6985L28.8637 58.3434C28.443 58.1301 27.9648 58.1429 27.5499 58.3809ZM27.0682 24.6058L29.2821 26.2091L28.4348 28.804C28.2285 29.4322 28.4488 30.1143 28.9833 30.5022C29.2493 30.6956 29.5611 30.7929 29.874 30.7929C30.1869 30.7929 30.4999 30.6956 30.7671 30.501L32.9728 28.8907L35.1832 30.5022C35.7118 30.8866 36.4256 30.8878 36.9647 30.5022C37.4991 30.1143 37.7206 29.431 37.5144 28.804L36.6635 26.208L38.8786 24.6046C39.4083 24.2202 39.631 23.5416 39.4306 22.9064C39.2255 22.2829 38.6465 21.8633 37.9867 21.8633L35.2547 21.8692L34.4144 19.2685C34.2105 18.6403 33.6303 18.2183 32.9716 18.2183C32.313 18.2183 31.7328 18.6403 31.5289 19.2685V19.2708L30.6921 21.8692L27.9589 21.8633C27.3014 21.8633 26.7225 22.2829 26.5174 22.9064C26.3123 23.5346 26.5326 24.2167 27.0682 24.6058ZM31.373 23.7444H31.3754C31.782 23.7444 32.1419 23.4819 32.2673 23.0951L32.974 20.9011L33.683 23.0963C33.8085 23.483 34.1683 23.7456 34.5749 23.7456H34.5773L36.8803 23.7409L35.0133 25.0922C34.6839 25.3313 34.5456 25.7556 34.6722 26.1423L35.3895 28.3328L33.526 26.9745C33.3619 26.8549 33.1674 26.794 32.974 26.794C32.7806 26.794 32.586 26.8537 32.422 26.9745L30.562 28.3328L31.2769 26.1411C31.4035 25.7544 31.2652 25.3301 30.9359 25.091L29.0688 23.7397L31.373 23.7444ZM26.6557 51.4531C27.0213 51.8188 27.0213 52.4118 26.6557 52.7775L24.7324 54.7007C24.5566 54.8765 24.3187 54.975 24.0702 54.975C24.0702 54.975 24.0702 54.975 24.069 54.975C23.8206 54.975 23.5815 54.8754 23.4068 54.6996L22.2606 53.5498C21.8949 53.183 21.8961 52.59 22.263 52.2255C22.6298 51.861 23.2228 51.861 23.5873 52.2278L24.0714 52.713L25.3313 51.4531C25.697 51.0874 26.29 51.0874 26.6557 51.4531Z" fill="#E9582A"/>
</svg>
