<svg width="90" height="90" viewBox="0 0 90 90" fill="none" xmlns="http://www.w3.org/2000/svg">
<circle cx="45" cy="45" r="45" fill="white"/>
<path d="M59.4148 75H51.4452C50.9927 75 50.625 74.6323 50.625 74.1798C50.625 73.7273 50.9927 73.3596 51.4452 73.3596H59.4148C59.8672 73.3596 60.2349 73.7273 60.2349 74.1798C60.2349 74.6323 59.8686 75 59.4148 75Z" fill="#E9582A"/>
<path d="M57.2259 58.1245C57.0591 58.1245 56.8923 58.0739 56.746 57.9687C56.3428 57.6775 55.8971 57.4574 55.4187 57.3125L52.1475 56.331C52.142 56.3296 52.1352 56.3269 52.1297 56.3255L42.4022 53.161C42.1356 53.0748 41.932 52.8575 41.8622 52.5868L40.3203 46.6336C40.2068 46.1948 40.4706 45.7478 40.9081 45.6343C41.3469 45.5208 41.7939 45.7847 41.9074 46.2221L43.3372 51.7407L52.6273 54.7631L55.8917 55.7418C56.5465 55.94 57.1561 56.2408 57.7057 56.6386C58.0734 56.9038 58.1554 57.4164 57.8902 57.7841C57.7316 58.0069 57.4815 58.1245 57.2259 58.1245Z" fill="#E9582A"/>
<path d="M50.2752 75H15.8202C15.3677 75 15 74.6323 15 74.1798V61.5789C15 58.8668 16.7456 56.5224 19.3429 55.7418L22.6018 54.7644L31.4271 51.7475L32.8584 46.2221C32.9718 45.7833 33.4188 45.5195 33.8577 45.6343C34.2965 45.7478 34.5589 46.1961 34.4455 46.6336L32.9035 52.5868C32.8338 52.8534 32.6356 53.068 32.3745 53.1569L23.1172 56.3228C23.1076 56.3255 23.0981 56.3296 23.0871 56.3324L19.8145 57.3139C17.9459 57.8743 16.6404 59.6282 16.6404 61.5789V73.3596H50.2739C50.7263 73.3596 51.094 73.7273 51.094 74.1798C51.094 74.6323 50.7277 75 50.2752 75Z" fill="#E9582A"/>
<path d="M37.3834 47.9295C31.1158 47.9295 26.0155 42.8306 26.0155 36.5616V33.9055C24.017 33.5214 22.501 31.758 22.501 29.6473C22.501 27.2564 24.4462 25.3112 26.8371 25.3112H47.9311C50.322 25.3112 52.2672 27.2564 52.2672 29.6473C52.2672 31.758 50.7512 33.5214 48.7513 33.9055V36.5616C48.7513 42.8306 43.6524 47.9295 37.3834 47.9295ZM26.8371 26.953C25.3512 26.953 24.1414 28.1628 24.1414 29.6487C24.1414 31.1346 25.3512 32.3444 26.8371 32.3444C27.2895 32.3444 27.6573 32.7121 27.6573 33.1646V36.5629C27.6573 41.927 32.0207 46.2904 37.3848 46.2904C42.7489 46.2904 47.1109 41.927 47.1109 36.5629V33.1646C47.1109 32.7121 47.4786 32.3444 47.9311 32.3444C49.417 32.3444 50.6268 31.1346 50.6268 29.6487C50.6268 28.1628 49.417 26.953 47.9311 26.953H26.8371Z" fill="#E9582A"/>
<path d="M47.9312 26.953H26.6171C26.1646 26.953 25.7969 26.5853 25.7969 26.1328V21.5356C25.7969 17.9322 28.7291 15 32.3325 15H55.0792C55.5317 15 55.8994 15.3677 55.8994 15.8202V18.9848C55.8994 23.3783 52.3247 26.953 47.9312 26.953ZM27.4373 25.3126H47.9312C51.4211 25.3126 54.2604 22.4733 54.2604 18.9848V16.6404H32.3338C29.634 16.6404 27.4386 18.8358 27.4386 21.5356V25.3126H27.4373Z" fill="#E9582A"/>
<path d="M37.382 56.8354C37.2193 56.8354 37.0566 56.7876 36.9172 56.6905L31.6434 53.0571C31.2702 52.8001 31.1759 52.2888 31.4328 51.9156C31.6898 51.5424 32.2011 51.4481 32.5743 51.7051L37.3779 55.0146L42.1706 51.6545C42.541 51.3948 43.0536 51.485 43.3134 51.8555C43.5731 52.2259 43.4829 52.7372 43.1124 52.9983L37.8536 56.6864C37.7128 56.7862 37.5474 56.8354 37.382 56.8354Z" fill="#E9582A"/>
<path d="M43.2422 61.0553C43.0727 61.0553 42.9046 61.002 42.7624 60.9009L36.9035 56.6823C36.5357 56.4171 36.4524 55.9045 36.7176 55.5368C36.9828 55.1691 37.494 55.0857 37.8631 55.3509L42.8512 58.942L45.0261 53.1172C45.1847 52.6935 45.6563 52.4775 46.0814 52.636C46.5052 52.7946 46.7212 53.2662 46.5626 53.6914L44.0132 60.5222C43.9243 60.7614 43.7275 60.946 43.4828 61.0198C43.4021 61.043 43.3215 61.0553 43.2422 61.0553Z" fill="#E9582A"/>
<path d="M31.7592 60.9378C31.6786 60.9378 31.5966 60.9255 31.5187 60.9009C31.2767 60.8257 31.0826 60.6452 30.9937 60.4087L28.4347 53.6695C28.2734 53.2457 28.4867 52.7727 28.9104 52.6114C29.3342 52.4515 29.8072 52.6634 29.9685 53.0871L32.1543 58.8422L37.1411 55.3509C37.5088 55.0857 38.0214 55.1691 38.2866 55.5368C38.5518 55.9045 38.4684 56.4171 38.1007 56.6823L37.9832 56.7671L32.2322 60.7915C32.0901 60.8872 31.9247 60.9378 31.7592 60.9378Z" fill="#E9582A"/>
<path d="M39.0264 61.0553H35.5105C35.1701 61.0553 34.8639 60.8447 34.7436 60.5262L33.922 58.3596C33.7607 57.9358 33.974 57.4628 34.3977 57.3015C34.8215 57.1416 35.2945 57.3548 35.4558 57.7772L36.0764 59.4149H38.47L39.2068 57.5722C39.375 57.1511 39.852 56.9475 40.2731 57.1156C40.6941 57.2837 40.8978 57.7608 40.7296 58.1818L39.7864 60.5399C39.6634 60.8502 39.3613 61.0553 39.0264 61.0553Z" fill="#E9582A"/>
<path d="M37.1492 74.2974C36.8813 74.2974 36.6311 74.1675 36.4766 73.9474L34.016 70.4315C33.9067 70.2743 33.8547 70.0829 33.8711 69.8929L34.6913 60.1668C34.7296 59.7157 35.1233 59.378 35.5771 59.4177C36.0282 59.4559 36.3632 59.8524 36.3263 60.3035L35.5307 69.7343L37.1492 72.0473L38.7745 69.7261L38.2059 60.2843C38.1785 59.8319 38.523 59.4436 38.9755 59.4163C39.4266 59.3917 39.8162 59.7334 39.8435 60.1859L40.43 69.912C40.4409 70.0966 40.389 70.2798 40.2837 70.4315L37.8231 73.9474C37.6673 74.1675 37.4171 74.2974 37.1492 74.2974Z" fill="#E9582A"/>
<path d="M22.8505 75C22.398 75 22.0303 74.6323 22.0303 74.1798V55.5477C22.0303 55.0953 22.398 54.7275 22.8505 54.7275C23.3029 54.7275 23.6707 55.0953 23.6707 55.5477V74.1812C23.6707 74.6337 23.3029 75 22.8505 75Z" fill="#E9582A"/>
<path d="M37.3821 41.2503C35.3795 41.2503 33.75 39.6209 33.75 37.6182C33.75 37.1658 34.1177 36.798 34.5702 36.798C35.0227 36.798 35.3904 37.1658 35.3904 37.6182C35.3904 38.7173 36.2844 39.6099 37.3821 39.6099C38.4798 39.6099 39.3738 38.7159 39.3738 37.6182C39.3738 37.1658 39.7415 36.798 40.194 36.798C40.6465 36.798 41.0142 37.1658 41.0142 37.6182C41.0156 39.6209 39.3861 41.2503 37.3821 41.2503Z" fill="#E9582A"/>
<path d="M35.5075 33.5159C35.055 33.5159 34.6873 33.1482 34.6873 32.6957C34.6873 32.3731 34.4248 32.1093 34.1009 32.1093C33.7769 32.1093 33.5144 32.3717 33.5144 32.6957C33.5144 33.1482 33.1467 33.5159 32.6942 33.5159C32.2417 33.5159 31.874 33.1482 31.874 32.6957C31.874 31.4681 32.8733 30.4689 34.1009 30.4689C35.3284 30.4689 36.3277 31.4681 36.3277 32.6957C36.3277 33.1482 35.96 33.5159 35.5075 33.5159Z" fill="#E9582A"/>
<path d="M42.5397 33.5159C42.0872 33.5159 41.7195 33.1482 41.7195 32.6957C41.7195 32.3731 41.4571 32.1093 41.1331 32.1093C40.8091 32.1093 40.5466 32.3717 40.5466 32.6957C40.5466 33.1482 40.1789 33.5159 39.7264 33.5159C39.274 33.5159 38.9062 33.1482 38.9062 32.6957C38.9062 31.4681 39.9055 30.4689 41.1331 30.4689C42.3606 30.4689 43.3599 31.4681 43.3599 32.6957C43.3599 33.1482 42.9922 33.5159 42.5397 33.5159Z" fill="#E9582A"/>
<path d="M49.2187 72.1881C48.8113 72.1881 48.4573 71.8846 48.4053 71.4691L46.6487 57.4068C46.62 57.1731 46.6925 56.9393 46.8483 56.763C47.0042 56.5866 47.2283 56.4855 47.4635 56.4855H51.4482C51.9007 56.4855 52.2684 56.8532 52.2684 57.3057C52.2684 57.7581 51.9007 58.1259 51.4482 58.1259H48.393L50.0361 71.2668C50.0922 71.7165 49.7737 72.1266 49.3239 72.1826C49.287 72.1867 49.2529 72.1881 49.2187 72.1881Z" fill="#E9582A"/>
<path d="M51.4467 75H49.5712C49.1187 75 48.751 74.6323 48.751 74.1798C48.751 73.7273 49.1187 73.3596 49.5712 73.3596H51.4467C51.8992 73.3596 52.2669 73.7273 52.2669 74.1798C52.2669 74.6323 51.8992 75 51.4467 75Z" fill="#E9582A"/>
<path d="M70.6657 75H51.4471C50.9947 75 50.627 74.6323 50.627 74.1798C50.627 73.7273 50.9947 73.3596 51.4471 73.3596H70.667C71.1195 73.3596 71.4872 73.7273 71.4872 74.1798C71.4872 74.6323 71.1195 75 70.6657 75Z" fill="#E9582A"/>
<path d="M71.0184 72.1881C70.9842 72.1881 70.95 72.1853 70.9158 72.1812C70.4661 72.1252 70.1476 71.7151 70.2036 71.2653L71.8468 58.1245H51.4471C50.9947 58.1245 50.627 57.7567 50.627 57.3043C50.627 56.8518 50.9947 56.4841 51.4471 56.4841H72.7763C73.0114 56.4841 73.2356 56.5852 73.3915 56.7616C73.5473 56.9379 73.6198 57.173 73.591 57.4054L71.8317 71.469C71.7798 71.8846 71.4271 72.1881 71.0184 72.1881Z" fill="#E9582A"/>
<path d="M60.1189 67.7344C58.5031 67.7344 57.1895 66.4207 57.1895 64.805C57.1895 63.1892 58.5031 61.8755 60.1189 61.8755C61.7347 61.8755 63.0484 63.1892 63.0484 64.805C63.0484 66.4207 61.7347 67.7344 60.1189 67.7344ZM60.1189 63.5159C59.4081 63.5159 58.8298 64.0941 58.8298 64.805C58.8298 65.5158 59.4081 66.094 60.1189 66.094C60.8298 66.094 61.408 65.5158 61.408 64.805C61.408 64.0941 60.8298 63.5159 60.1189 63.5159Z" fill="#E9582A"/>
<path d="M71.3691 75H48.8684C47.6409 75 46.6416 74.0007 46.6416 72.7732C46.6416 71.5456 47.6409 70.5463 48.8684 70.5463H71.3691C72.5967 70.5463 73.5959 71.5456 73.5959 72.7732C73.5959 74.0021 72.5967 75 71.3691 75ZM48.8684 72.1881C48.5458 72.1881 48.282 72.4505 48.282 72.7745C48.282 73.0985 48.5445 73.361 48.8684 73.361H71.3691C71.6917 73.361 71.9556 73.0985 71.9556 72.7745C71.9556 72.4505 71.6931 72.1881 71.3691 72.1881H48.8684Z" fill="#E9582A"/>
<path d="M60.119 58.1259C59.6665 58.1259 59.2988 57.7581 59.2988 57.3057V37.6169C59.2988 37.1644 59.6665 36.7967 60.119 36.7967C60.5715 36.7967 60.9392 37.1644 60.9392 37.6169V57.3057C60.9392 57.7581 60.5715 58.1259 60.119 58.1259Z" fill="#E9582A"/>
<path d="M70.6648 44.743C69.3702 44.743 68.0757 44.4969 66.844 44.0034C64.773 43.175 62.4929 43.175 60.4219 44.0034C60.169 44.1046 59.8833 44.0732 59.6578 43.9214C59.4322 43.7683 59.2969 43.5141 59.2969 43.242V34.101C59.2969 33.766 59.5006 33.4639 59.8122 33.3395C62.2755 32.3539 64.989 32.3539 67.4523 33.3395C69.5233 34.1679 71.8035 34.1679 73.8745 33.3395C74.1274 33.2384 74.4131 33.2698 74.6386 33.4216C74.8642 33.5747 74.9995 33.8289 74.9995 34.101V43.242C74.9995 43.5769 74.7958 43.879 74.4842 44.0034C73.2539 44.4969 71.9593 44.743 70.6648 44.743ZM63.6343 41.7411C64.9289 41.7411 66.2221 41.9871 67.4551 42.4806C69.3552 43.2407 71.433 43.3035 73.3619 42.6679V35.2397C71.2143 35.8261 68.9396 35.7003 66.8454 34.8624C64.9453 34.1023 62.8688 34.0394 60.9386 34.6751V42.1033C61.8231 41.8627 62.728 41.7411 63.6343 41.7411Z" fill="#E9582A"/>
<path d="M70.6648 40.4985C69.3702 40.4985 68.0757 40.2525 66.844 39.759C64.773 38.9306 62.4929 38.9306 60.4219 39.759C60.0009 39.9271 59.5238 39.7221 59.3556 39.3024C59.1875 38.8814 59.3926 38.4043 59.8122 38.2361C62.2755 37.2505 64.989 37.2505 67.4523 38.2361C69.5233 39.0645 71.8035 39.0645 73.8745 38.2361C74.2955 38.068 74.7726 38.2731 74.9407 38.6927C75.1089 39.1138 74.9038 39.5908 74.4841 39.759C73.2539 40.2511 71.9593 40.4985 70.6648 40.4985Z" fill="#E9582A"/>
</svg>
