<svg id="Layer_1" enable-background="new 0 0 512 512" height="512" viewBox="0 0 512 512" width="512" xmlns="http://www.w3.org/2000/svg"><g><g fill="#407093"><path d="m124.652 110.825h30.905v43.702h-30.905z"/><path d="m356.443 110.825h30.905v43.702h-30.905z"/></g><path d="m395.862 110.825h-279.724c-17.069 0-30.905-13.837-30.905-30.905v-49.015c0-17.068 13.836-30.905 30.905-30.905h279.724c17.069 0 30.905 13.837 30.905 30.905v49.014c0 17.069-13.836 30.906-30.905 30.906z" fill="#eaf6ff"/><path d="m395.862 0h-30.905c17.069 0 30.905 13.837 30.905 30.905v49.015c0 17.068-13.837 30.905-30.905 30.905h30.905c17.069 0 30.905-13.837 30.905-30.905v-49.015c0-17.068-13.836-30.905-30.905-30.905z" fill="#d8ecfe"/><g fill="#f58a97"><path d="m390.271 72.193c-.015 0-.029 0-.044 0-3.189.018-6.544.031-9.408.037v-41.325c0-4.267-3.459-7.726-7.726-7.726s-7.726 3.459-7.726 7.726v49.015c0 3.766 2.714 6.983 6.427 7.616.546.093.906.155 6.486.155 2.646 0 6.467-.014 12.035-.045 4.267-.024 7.706-3.503 7.683-7.769-.026-4.253-3.481-7.684-7.727-7.684z"/><path d="m155.677 23.179c-4.268 0-7.726 3.459-7.726 7.726v15.96h-18.494v-15.96c0-4.267-3.459-7.726-7.726-7.726-4.268 0-7.726 3.459-7.726 7.726v49.055c0 4.267 3.459 7.726 7.726 7.726 4.268 0 7.726-3.459 7.726-7.726v-17.642h18.494v17.643c0 4.267 3.459 7.726 7.726 7.726s7.726-3.459 7.726-7.726v-49.056c0-4.267-3.458-7.726-7.726-7.726z"/><path d="m342.186 39.079c4.268 0 7.726-3.459 7.726-7.726s-3.459-7.726-7.726-7.726h-20.481c-4.268 0-7.726 3.459-7.726 7.726v48.608c0 4.267 3.459 7.726 7.726 7.726h20.481c4.268 0 7.726-3.459 7.726-7.726s-3.459-7.726-7.726-7.726h-12.755v-8.851h11.244c4.268 0 7.726-3.459 7.726-7.726s-3.459-7.726-7.726-7.726h-11.244v-8.851h12.755z"/><path d="m290.8 23.179h-27.092c-4.268 0-7.726 3.459-7.726 7.726s3.459 7.726 7.726 7.726h5.765v41.329c0 4.267 3.459 7.726 7.726 7.726s7.726-3.459 7.726-7.726v-41.328h5.874c4.268 0 7.726-3.459 7.726-7.726s-3.458-7.727-7.725-7.727z"/><path d="m211.111 23.179c-17.785 0-32.255 14.469-32.255 32.254s14.47 32.254 32.255 32.254 32.254-14.469 32.254-32.254-14.47-32.254-32.254-32.254zm0 49.055c-9.265 0-16.802-7.537-16.802-16.801s7.537-16.801 16.802-16.801c9.264 0 16.801 7.537 16.801 16.801s-7.538 16.801-16.801 16.801z"/></g><path d="m488.821 465.561h-465.642v-292.925c0-17.069 13.837-30.905 30.905-30.905h403.831c17.069 0 30.905 13.837 30.905 30.905v292.925z" fill="#eaf6ff"/><path d="m457.915 141.73h-30.905c17.069 0 30.905 13.837 30.905 30.905v292.925h30.905v-292.924c.001-17.069-13.836-30.906-30.905-30.906z" fill="#d8ecfe"/><path d="m315.932 465.561h-119.864v-136.161c0-5.69 4.612-10.302 10.302-10.302h99.26c5.69 0 10.302 4.612 10.302 10.302z" fill="#b3dafe"/><path d="m305.63 319.098h-30.905c5.69 0 10.302 4.612 10.302 10.302v136.161h30.905v-136.161c0-5.69-4.612-10.302-10.302-10.302z" fill="#8ac9fe"/><path d="m263.726 465.561v-145.336c0-.384-.037-.758-.091-1.127h-15.27c-.054.369-.091.743-.091 1.127v145.336z" fill="#eaf6ff"/><path d="m193.794 288.193h124.532c3.983 0 7.211-3.229 7.211-7.211v-101.135c0-3.983-3.229-7.211-7.211-7.211h-124.532c-3.983 0-7.211 3.229-7.211 7.211v101.135c0 3.982 3.229 7.211 7.211 7.211z" fill="#b3dafe"/><path d="m263.787 222.688v-50.052h-15.453v50.052h-61.751v15.453h61.751v50.052h15.453v-50.052h61.75v-15.453z" fill="#eaf6ff"/><path d="m318.326 172.636h-30.905c3.983 0 7.211 3.228 7.211 7.211v101.134c0 3.983-3.229 7.211-7.211 7.211h30.905c3.983 0 7.211-3.228 7.211-7.211v-101.134c0-3.983-3.228-7.211-7.211-7.211z" fill="#8ac9fe"/><path d="m294.632 222.688h30.905v15.453h-30.905z" fill="#d8ecfe"/><g><path d="m363.654 288.193h87.05c3.983 0 7.211-3.229 7.211-7.211v-101.135c0-3.983-3.229-7.211-7.211-7.211h-87.05c-3.983 0-7.211 3.229-7.211 7.211v101.135c0 3.982 3.228 7.211 7.211 7.211z" fill="#b3dafe"/><path d="m450.704 172.636h-30.905c3.983 0 7.211 3.228 7.211 7.211v101.134c0 3.983-3.229 7.211-7.211 7.211h30.905c3.983 0 7.211-3.228 7.211-7.211v-101.134c0-3.983-3.228-7.211-7.211-7.211z" fill="#8ac9fe"/><path d="m414.905 222.688v-50.052h-15.452v50.052h-43.01v15.452h43.01v50.053h15.452v-50.053h43.01v-15.452z" fill="#eaf6ff"/><path d="m427.01 222.688h30.905v15.453h-30.905z" fill="#d8ecfe"/></g><g><path d="m363.654 434.655h87.05c3.983 0 7.211-3.229 7.211-7.211v-101.134c0-3.983-3.229-7.211-7.211-7.211h-87.05c-3.983 0-7.211 3.229-7.211 7.211v101.135c0 3.982 3.228 7.21 7.211 7.21z" fill="#b3dafe"/><path d="m450.704 319.098h-30.905c3.983 0 7.211 3.228 7.211 7.211v101.134c0 3.983-3.229 7.211-7.211 7.211h30.905c3.983 0 7.211-3.228 7.211-7.211v-101.133c0-3.983-3.228-7.212-7.211-7.212z" fill="#8ac9fe"/><path d="m414.905 369.15v-50.052h-15.452v50.052h-43.01v15.453h43.01v50.052h15.452v-50.052h43.01v-15.453z" fill="#eaf6ff"/><path d="m427.01 369.15h30.905v15.453h-30.905z" fill="#d8ecfe"/></g><g><path d="m61.296 288.193h87.05c3.983 0 7.211-3.229 7.211-7.211v-101.135c0-3.983-3.229-7.211-7.211-7.211h-87.05c-3.983 0-7.211 3.229-7.211 7.211v101.135c0 3.982 3.228 7.211 7.211 7.211z" fill="#b3dafe"/><path d="m148.346 172.636h-30.905c3.983 0 7.211 3.228 7.211 7.211v101.134c0 3.983-3.229 7.211-7.211 7.211h30.905c3.983 0 7.211-3.228 7.211-7.211v-101.134c0-3.983-3.228-7.211-7.211-7.211z" fill="#8ac9fe"/><path d="m112.547 222.688v-50.052h-15.452v50.052h-43.01v15.452h43.01v50.053h15.452v-50.053h43.01v-15.452z" fill="#eaf6ff"/><path d="m124.652 222.688h30.905v15.453h-30.905z" fill="#d8ecfe"/></g><g><path d="m61.296 434.655h87.05c3.983 0 7.211-3.229 7.211-7.211v-101.134c0-3.983-3.229-7.211-7.211-7.211h-87.05c-3.983 0-7.211 3.229-7.211 7.211v101.135c0 3.982 3.228 7.21 7.211 7.21z" fill="#b3dafe"/><path d="m148.346 319.098h-30.905c3.983 0 7.211 3.228 7.211 7.211v101.134c0 3.983-3.229 7.211-7.211 7.211h30.905c3.983 0 7.211-3.228 7.211-7.211v-101.133c0-3.983-3.228-7.212-7.211-7.212z" fill="#8ac9fe"/><path d="m112.547 369.15v-50.052h-15.452v50.052h-43.01v15.453h43.01v50.052h15.452v-50.052h43.01v-15.453z" fill="#eaf6ff"/><path d="m124.652 369.15h30.905v15.453h-30.905z" fill="#d8ecfe"/></g><path d="m501.698 512h-491.396c-5.69 0-10.302-4.612-10.302-10.302v-25.835c0-5.69 4.612-10.302 10.302-10.302h491.396c5.69 0 10.302 4.612 10.302 10.302v25.835c0 5.69-4.612 10.302-10.302 10.302z" fill="#407093"/><path d="m501.698 465.561h-30.905c5.69 0 10.302 4.612 10.302 10.302v25.836c0 5.69-4.612 10.302-10.302 10.302h30.905c5.69 0 10.302-4.612 10.302-10.302v-25.836c0-5.69-4.612-10.302-10.302-10.302z" fill="#365e7d"/></g></svg>