<svg viewBox="0 0 24 24" xmlns="http://www.w3.org/2000/svg"><g id="Layer_2" data-name="Layer 2"><path d="m21.0918 5.25586a16.20662 16.20662 0 0 1 -3.82227-.95557 16.21938 16.21938 0 0 1 -4.7793-2.86816.75006.75006 0 0 0 -.98046 0 16.20746 16.20746 0 0 1 -4.7793 2.86767 16.18372 16.18372 0 0 1 -3.82227.95606.74994.74994 0 0 0 -.6582.74414v4.6748a12.03239 12.03239 0 0 0 7.13965 10.98584l2.30566 1.02491a.75244.75244 0 0 0 .60938 0l2.30566-1.02491a12.03239 12.03239 0 0 0 7.13965-10.98584v-4.6748a.74994.74994 0 0 0 -.6582-.74414z" fill="#29ce4c"/><path d="m11.5 15a1.00641 1.00641 0 0 1 -.625-.21924l-2.5-2a1.00011 1.00011 0 0 1 1.25-1.56152l1.84082 1.47265 3.87012-3.43945a.99991.99991 0 0 1 1.32812 1.49512l-4.5 4a.99841.99841 0 0 1 -.66406.25244z" fill="#f4f6f8"/></g></svg>