<svg width="90" height="90" viewBox="0 0 90 90" fill="none" xmlns="http://www.w3.org/2000/svg">
<circle cx="45" cy="45" r="45" fill="white"/>
<path fill-rule="evenodd" clip-rule="evenodd" d="M65.4462 67.1585L66.9012 67.1709C66.9047 67.171 66.9084 67.171 66.912 67.171C68.237 67.1965 69.2828 68.2657 69.2828 69.5907V69.6007C69.2828 69.6007 69.2531 72.6303 69.2531 72.6292C69.2504 73.9409 68.1465 75.0217 66.8348 74.9997C66.8348 74.9997 51.08 74.8658 51.0821 74.8658C49.7502 74.8642 48.695 73.7676 48.695 72.4608C48.695 72.4575 48.695 72.4542 48.6951 72.4509C48.6951 72.4509 48.7248 69.4213 48.7248 69.4224C48.7275 68.1168 49.8236 67.037 51.1299 67.037H51.1384L52.3057 67.047L52.2937 59.1235V59.122C52.2937 56.7154 52.6899 54.4528 54.4851 52.8423C56.2172 51.2719 59.3762 48.9148 61.8115 46.0392C61.8404 46.0052 61.8715 45.9729 61.9047 45.9431C63.3896 44.6005 65.6267 44.5531 67.0518 45.9751C67.2303 46.1514 67.388 46.3356 67.5247 46.5268C67.6011 46.1757 67.64 45.8103 67.6401 45.4278L67.5955 34.5302V34.5297C67.5816 30.5485 68.926 28.6755 70.3279 27.9866C71.5446 27.3887 72.9214 27.58 73.9994 28.2417C75.0897 28.9109 75.8395 30.0512 75.8701 31.2255L76.45 51.2858C76.45 51.2873 76.4501 51.289 76.4501 51.2906C76.5016 53.4178 75.7336 55.2721 74.2411 56.7817C74.2396 56.7832 74.238 56.7847 74.2365 56.7863L65.4462 65.5622V67.1585ZM54.3201 67.0641L63.4318 67.1414V65.1446C63.4318 64.8771 63.538 64.6207 63.7273 64.4317L72.8105 55.3634C73.9038 54.2565 74.4735 52.9002 74.4363 51.3411L73.8564 31.2836C73.8564 31.2828 73.8564 31.2817 73.8564 31.2809C73.8424 30.7445 73.4424 30.2634 72.9457 29.9586C71.5104 29.0777 69.5938 29.922 69.6099 34.5224L69.6546 45.4221V45.4261C69.6546 47.1828 69.0763 48.6838 67.9569 50.0615C67.956 50.0627 67.955 50.0638 67.9541 50.0648C67.9541 50.0648 67.2108 50.9717 67.2107 50.972C67.2031 50.9811 67.1953 50.9902 67.1875 50.9991C67.1872 50.9995 67.1869 50.9998 67.1866 51.0002C65.7453 52.6367 64.2 54.0192 62.5934 55.6259C62.2003 56.0189 61.5621 56.0189 61.169 55.6259C60.776 55.2327 60.776 54.5945 61.169 54.2014C62.7349 52.6355 64.2437 51.2891 65.6499 49.6971C66.2537 48.8828 66.2712 48.034 65.6355 47.4076C65.6337 47.4059 65.6319 47.4042 65.6302 47.4025C64.9874 46.7597 63.9858 46.815 63.3005 47.3979C60.8066 50.3249 57.6026 52.7347 55.8364 54.3362C55.8349 54.3376 55.8335 54.3389 55.832 54.3401C54.4765 55.555 54.3082 57.3057 54.3082 59.1215L54.3201 67.0641ZM51.1273 69.0515L51.1222 69.0516C50.9163 69.0556 50.7393 69.2207 50.7393 69.4272C50.7393 69.4304 50.7392 69.4338 50.7392 69.4371C50.7392 69.4371 50.7095 72.4638 50.7096 72.4685C50.7135 72.6742 50.8748 72.8514 51.0853 72.8514H51.0938L66.8565 72.9852C66.8603 72.9853 66.864 72.9853 66.8677 72.9855C67.0684 72.9894 67.2386 72.8251 67.2386 72.6244C67.2386 72.6211 67.2386 72.6178 67.2386 72.6146C67.2386 72.6146 67.2683 69.5877 67.2682 69.5827C67.264 69.3661 67.0938 69.1912 66.8766 69.1852L51.1273 69.0515ZM53.7619 70.602C53.985 71.1819 53.7024 71.8511 53.1225 72.089C52.5276 72.3121 51.8585 72.0296 51.6355 71.4496C51.3975 70.8548 51.6801 70.2005 52.2748 69.9625C52.8549 69.7246 53.524 70.0072 53.7619 70.602ZM24.9915 67.1585V65.5617L16.2155 56.7857C14.7045 55.2747 13.9509 53.4196 14.0025 51.2906C14.0025 51.2892 14.0025 51.2878 14.0025 51.2866L14.5677 31.2262C14.5677 31.2252 14.5677 31.2242 14.5677 31.2231C14.6044 30.0478 15.3575 28.9091 16.449 28.241C17.5292 27.5799 18.9066 27.3889 20.1234 27.9865C21.5265 28.6754 22.871 30.5484 22.857 34.5297V34.5302L22.8123 45.4303V45.4361C22.8086 45.8183 22.8462 46.1835 22.9224 46.5342C23.0592 46.3417 23.2176 46.1561 23.397 45.9789C24.8033 44.5569 27.0618 44.5996 28.5479 45.9431C28.5818 45.9737 28.6135 46.0066 28.6429 46.0416C31.0628 48.9161 34.221 51.2719 35.965 52.84C37.7623 54.4508 38.1587 56.7143 38.1587 59.122V59.1235L38.1469 67.047L39.3142 67.037H39.3226C40.6251 67.037 41.7019 68.1051 41.7275 69.4074C41.7276 69.4108 41.7276 69.4141 41.7276 69.4174L41.7575 72.4509V72.4608C41.7575 73.7668 40.678 74.8629 39.3726 74.8658C39.3726 74.8658 23.6175 74.9997 23.6183 74.9995C22.2876 75.0222 21.2103 73.9499 21.1848 72.6441C21.1847 72.6392 21.1847 72.6342 21.1847 72.6293C21.1847 72.6293 21.1698 69.6019 21.1698 69.6057C21.1466 68.2745 22.2191 67.1967 23.5253 67.1711C23.529 67.171 23.5328 67.171 23.5365 67.1709L24.9915 67.1585ZM36.1323 67.0641L36.1443 59.1215C36.1443 57.3057 35.976 55.555 34.6205 54.3401L34.6193 54.3391C32.8372 52.7366 29.6317 50.3256 27.1506 47.3968C26.467 46.816 25.4593 46.7562 24.8274 47.3973C24.824 47.4007 24.8205 47.4042 24.817 47.4076C24.1813 48.034 24.1989 48.8828 24.8026 49.6971C26.2097 51.2902 27.7196 52.6378 29.272 54.2047C29.6631 54.5996 29.6602 55.238 29.2653 55.6291C28.8703 56.0203 28.2321 56.0174 27.8408 55.6225C26.2504 54.0169 24.7061 52.6353 23.2656 50.9999C23.2655 50.9997 23.2652 50.9994 23.265 50.9991C23.2593 50.9927 23.2536 50.9862 23.2481 50.9795C23.248 50.9793 22.4898 50.0724 22.4898 50.0724C22.4851 50.0668 22.4805 50.0613 22.4759 50.0556C21.3739 48.678 20.7816 47.1761 20.798 45.4201L20.8426 34.5224C20.8514 32.0213 20.3383 30.6001 19.5042 29.962C18.8733 29.4794 18.0925 29.597 17.5007 29.9593C17.0011 30.2649 16.5984 30.7474 16.5812 31.2853L16.0163 51.3407C15.9789 52.8989 16.5339 54.2554 17.6398 55.3612L26.7108 64.4323C26.8998 64.6212 27.0059 64.8774 27.0059 65.1446V67.1415L36.1323 67.0641ZM39.3251 69.0515C39.3251 69.0515 23.5612 69.1852 23.5569 69.1853C23.3512 69.1935 23.18 69.3608 23.184 69.5715C23.1841 69.5762 23.1841 69.581 23.1841 69.5858C23.1841 69.5858 23.199 72.6098 23.1991 72.6128C23.2073 72.8184 23.3746 72.9895 23.5851 72.9855C23.5888 72.9853 23.5923 72.9853 23.596 72.9852L39.3587 72.8514H39.3673C39.5753 72.8514 39.7414 72.6716 39.743 72.4638C39.743 72.4638 39.7134 69.4439 39.7132 69.4391C39.7051 69.2289 39.5358 69.0529 39.3251 69.0515ZM38.8171 70.602C39.0549 71.1819 38.7575 71.8511 38.1776 72.089C37.5829 72.3121 36.9285 72.0296 36.6906 71.4496C36.4526 70.8548 36.75 70.2005 37.33 69.9625C37.9248 69.7246 38.5791 70.0072 38.8171 70.602ZM45.6231 15.6693L61.1163 22.3105C61.4867 22.4691 61.7268 22.8332 61.7268 23.2362V35.7643C61.7268 44.9695 55.0273 52.9242 45.9643 54.5042L45.3997 54.6029C45.2849 54.623 45.1676 54.623 45.0527 54.6029L44.4887 54.5043C35.4251 52.9242 28.7257 44.9695 28.7257 35.7643V23.2362C28.7257 22.8332 28.9658 22.4691 29.3362 22.3105L44.8294 15.6693C45.0828 15.5606 45.3696 15.5606 45.6231 15.6693ZM45.2262 17.6909L30.7401 23.9003V35.7643C30.7401 43.9949 36.7307 51.107 44.8345 52.5198L45.2262 52.5883L45.6179 52.5198C53.7217 51.107 59.7123 43.9949 59.7123 35.7643V23.9003L45.2262 17.6909ZM41.368 31.2447V26.0999C41.368 25.5437 41.819 25.0927 42.3753 25.0927H48.0772C48.6334 25.0927 49.0844 25.5437 49.0844 26.0999V31.2447H54.2292C54.7855 31.2447 55.2365 31.6957 55.2365 32.252V37.9539C55.2365 38.5101 54.7855 38.9611 54.2292 38.9611H49.0844V44.1059C49.0844 44.6622 48.6334 45.1131 48.0772 45.1131H42.3753C41.819 45.1131 41.368 44.6622 41.368 44.1059V38.9611H36.2232C35.667 38.9611 35.216 38.5101 35.216 37.9539V32.252C35.216 31.6957 35.667 31.2447 36.2232 31.2447H41.368ZM42.3753 33.2592H37.2305V36.9467H42.3753C42.9315 36.9467 43.3825 37.3976 43.3825 37.9539V43.0987H47.07V37.9539C47.07 37.3976 47.5209 36.9467 48.0772 36.9467H53.222V33.2592H48.0772C47.5209 33.2592 47.07 32.8082 47.07 32.252V27.1072H43.3825V32.252C43.3825 32.8082 42.9315 33.2592 42.3753 33.2592ZM24.3282 18.5585C24.3282 19.1144 23.8769 19.5658 23.321 19.5658C22.765 19.5658 22.3138 19.1144 22.3138 18.5585V16.0072C22.3138 15.4512 22.765 15 23.321 15C23.8769 15 24.3282 15.4512 24.3282 16.0072V18.5585ZM21.1488 19.7235C21.7046 19.7235 22.156 20.1748 22.156 20.7308C22.156 21.2866 21.7046 21.738 21.1488 21.738H18.5975C18.0415 21.738 17.5902 21.2866 17.5902 20.7308C17.5902 20.1748 18.0415 19.7235 18.5975 19.7235H21.1488ZM22.3138 22.903C22.3138 22.3471 22.765 21.8957 23.321 21.8957C23.8769 21.8957 24.3282 22.3471 24.3282 22.903V25.4543C24.3282 26.0102 23.8769 26.4615 23.321 26.4615C22.765 26.4615 22.3138 26.0102 22.3138 25.4543V22.903ZM25.4932 21.738C24.9372 21.738 24.486 21.2866 24.486 20.7308C24.486 20.1748 24.9372 19.7235 25.4932 19.7235H28.0445C28.6004 19.7235 29.0518 20.1748 29.0518 20.7308C29.0518 21.2866 28.6004 21.738 28.0445 21.738H25.4932ZM68.3698 18.5585C68.3698 19.1144 67.9185 19.5658 67.3626 19.5658C66.8068 19.5658 66.3554 19.1144 66.3554 18.5585V16.0072C66.3554 15.4512 66.8068 15 67.3626 15C67.9185 15 68.3698 15.4512 68.3698 16.0072V18.5585ZM65.1904 19.7235C65.7463 19.7235 66.1976 20.1748 66.1976 20.7308C66.1976 21.2866 65.7463 21.738 65.1904 21.738H62.6391C62.0831 21.738 61.6319 21.2866 61.6319 20.7308C61.6319 20.1748 62.0831 19.7235 62.6391 19.7235H65.1904ZM66.3554 22.903C66.3554 22.3471 66.8068 21.8957 67.3626 21.8957C67.9185 21.8957 68.3698 22.3471 68.3698 22.903V25.4543C68.3698 26.0102 67.9185 26.4615 67.3626 26.4615C66.8068 26.4615 66.3554 26.0102 66.3554 25.4543V22.903ZM69.5348 21.738C68.9788 21.738 68.5276 21.2866 68.5276 20.7308C68.5276 20.1748 68.9788 19.7235 69.5348 19.7235H72.0861C72.642 19.7235 73.0934 20.1748 73.0934 20.7308C73.0934 21.2866 72.642 21.738 72.0861 21.738H69.5348Z" fill="#E9582A"/>
</svg>
