<svg clip-rule="evenodd" fill-rule="evenodd" height="512" image-rendering="optimizeQuality" shape-rendering="geometricPrecision" text-rendering="geometricPrecision" viewBox="0 0 512 512" width="512" xmlns="http://www.w3.org/2000/svg" xmlns:xodm="http://www.corel.com/coreldraw/odm/2003"><g id="Layer_x0020_1"><g id="_2509319658032"><path d="m505.97 329.54h-61.05c-3.31 0-6-2.69-6-6v-42.22h-18.83c-3.31 0-6-2.68-6-5.99v-52.67c0-3.32 2.69-6 6-6h18.83v-22.2h-283.39c-2.89 18.3-18.77 32.34-37.87 32.34s-34.99-14.04-37.88-32.34h-12.7c-3.31 0-6-2.69-6-6v-24.2c0-3.32 2.69-6 6-6h18.83v-40.67h-18.83c-3.31 0-6-2.68-6-6v-34.2c0-3.31 2.69-5.99 6-5.99h79.28c3.31 0 6 2.68 6 5.99 0 14.53 11.82 26.35 26.35 26.35 14.52 0 26.34-11.82 26.34-26.35 0-3.31 2.69-5.99 6-5.99h294.92c3.31 0 6 2.68 6 5.99v34.2c0 3.32-2.69 6-6 6h-18.83v40.67h18.83c3.31 0 6 2.68 6 6v72.42c0 3.31-2.69 6-6 6h-18.83v40.66h18.83c3.31 0 6 2.69 6 6v34.2c0 3.31-2.69 6-6 6z" fill="#ffb900"/><path d="m444.92 440.6h-294.92c-3.31 0-6-2.68-6-6 0-14.52-11.82-26.34-26.34-26.34-14.53 0-26.35 11.82-26.35 26.34 0 3.32-2.68 6-6 6h-79.28c-3.31 0-6-2.68-6-6v-34.19c0-3.32 2.69-6 6-6h18.83v-40.67h-18.83c-3.31 0-6-2.69-6-6v-72.41c0-3.32 2.69-6 6-6h18.83v-40.67h-18.83c-3.31 0-6-2.69-6-6v-34.2c0-3.31 2.69-6 6-6h79.28c3.32 0 6 2.69 6 6 0 14.53 11.82 26.35 26.35 26.35 14.52 0 26.34-11.82 26.34-26.35 0-3.31 2.69-6 6-6h294.92c3.31 0 6 2.69 6 6v34.2c0 3.31-2.69 6-6 6h-18.83v40.67h18.83c3.31 0 6 2.68 6 6v72.41c0 3.31-2.69 6-6 6h-18.83v40.67h18.83c3.31 0 6 2.68 6 6v34.19c0 3.32-2.69 6-6 6z" fill="#46b3ff"/><g fill="#fff"><path d="m117.66 270.4c-3.32 0-6-2.69-6-6v-15.6c0-3.31 2.68-6 6-6 3.31 0 6 2.69 6 6v15.6c0 3.31-2.69 6-6 6z"/><path d="m117.66 307.02c-3.32 0-6-2.69-6-6v-15.6c0-3.31 2.68-6 6-6 3.31 0 6 2.69 6 6v15.6c0 3.31-2.69 6-6 6z"/><path d="m117.66 343.64c-3.32 0-6-2.69-6-6v-15.59c0-3.32 2.68-6 6-6 3.31 0 6 2.68 6 6v15.59c0 3.31-2.69 6-6 6z"/><path d="m117.66 380.26c-3.32 0-6-2.68-6-6v-15.59c0-3.31 2.68-6 6-6 3.31 0 6 2.69 6 6v15.59c0 3.32-2.69 6-6 6z"/></g><g><path d="m285.04 410.03c-54.31 0-98.5-44.18-98.5-98.5 0-54.31 44.19-98.5 98.5-98.5 54.32 0 98.51 44.19 98.51 98.5-.01 54.32-44.19 98.5-98.51 98.5z" fill="#eb486a"/><path d="m285.04 383.41c-39.63 0-71.88-32.24-71.88-71.88 0-39.63 32.25-71.88 71.88-71.88 39.64 0 71.88 32.25 71.88 71.88 0 39.64-32.24 71.88-71.88 71.88z" fill="#fff"/><path d="m272.23 339.63c-1.14 0-2.27-.43-3.14-1.3l-21.68-21.68c-1.74-1.74-1.74-4.55 0-6.29 1.73-1.73 4.54-1.73 6.28 0l18.54 18.55 44.17-44.17c1.74-1.74 4.55-1.74 6.28 0 1.74 1.73 1.74 4.54 0 6.28l-47.31 47.31c-.86.87-2 1.3-3.14 1.3z" fill="#78747a"/></g></g></g></svg>