<svg width="90" height="90" viewBox="0 0 90 90" fill="none" xmlns="http://www.w3.org/2000/svg">
<circle cx="45" cy="45" r="45" fill="white"/>
<path d="M69.8826 55.1623C68.6232 54.6751 67.3192 54.3286 65.996 54.1202V48.6118C65.996 48.6031 65.9958 48.5944 65.9955 48.5857C65.8631 44.9546 64.1251 41.7669 60.9694 39.3671C58.5895 37.5573 55.477 36.2319 51.891 35.4856C54.695 33.4174 56.5178 30.0918 56.5178 26.3481C56.5178 20.0907 51.427 15 45.1697 15C38.9123 15 33.8214 20.0908 33.8214 26.3481C33.8214 30.0918 35.6442 33.4174 38.4482 35.4856C34.8623 36.232 31.7499 37.5575 29.37 39.3671C26.2144 41.7669 24.4763 44.9548 24.3438 48.5857C24.3436 48.5944 24.3433 48.6031 24.3433 48.6118V54.1204C23.0201 54.3287 21.7161 54.6752 20.4567 55.1623C20.1433 55.2835 19.9568 55.6064 20.0086 55.9385C20.8917 61.606 24.2432 66.499 29.2037 69.3631C31.7245 70.8185 34.4604 71.6514 37.3388 71.8445C39.3731 73.7976 42.1335 75 45.1697 75C48.2058 75 50.9662 73.7977 53.0005 71.8445C55.8788 71.6514 58.6147 70.8185 61.1356 69.3631C66.0961 66.499 69.4476 61.6061 70.3307 55.9385C70.3825 55.6065 70.196 55.2835 69.8826 55.1623ZM35.25 26.3481C35.25 20.8785 39.6999 16.4286 45.1697 16.4286C50.6394 16.4286 55.0892 20.8785 55.0892 26.3481C55.0892 31.8177 50.6393 36.2676 45.1697 36.2676C39.7 36.2676 35.25 31.8177 35.25 26.3481ZM25.7719 48.6252C26.0451 41.3582 33.4173 37.6592 40.3064 36.6C41.7812 37.3024 43.4303 37.6962 45.1695 37.6962C46.9088 37.6962 48.5579 37.3024 50.0326 36.5999C56.9214 37.6589 64.2933 41.3587 64.5673 48.6249V53.9492C63.4255 53.8575 62.2762 53.871 61.1343 53.9885C61.4386 51.0627 61.0514 48.0696 59.955 45.2348C59.8338 44.9214 59.5106 44.7355 59.1788 44.7865C56.2231 45.247 53.4195 46.4049 51.0122 48.1469C49.811 45.4576 47.9792 43.0554 45.6178 41.153C45.3562 40.9421 44.9831 40.9421 44.7216 41.153C42.3601 43.0555 40.5282 45.4576 39.327 48.1469C36.9195 46.4049 34.1161 45.2471 31.1604 44.7865C30.8281 44.7352 30.5054 44.9213 30.3842 45.2348C29.2878 48.0696 28.9007 51.0627 29.205 53.9885C28.063 53.871 26.9137 53.8575 25.7719 53.9493V48.6251V48.6252ZM57.467 60.744C57.1435 61.3045 56.7891 61.8462 56.4073 62.3658C56.0751 59.5182 54.6817 56.9901 52.6338 55.1888C52.5682 53.2299 52.2014 51.3196 51.5605 49.5155C53.6941 47.903 56.1853 46.7994 58.8242 46.2975C60.5012 51.0955 60.0166 56.3281 57.467 60.744ZM51.1289 54.0707C49.3972 52.9933 47.355 52.37 45.1697 52.37C42.9843 52.37 40.9422 52.9935 39.2104 54.0707C39.6556 49.6454 41.7736 45.5646 45.1697 42.6388C48.5657 45.5648 50.6837 49.6454 51.1289 54.0707ZM38.7788 49.5155C38.1378 51.3195 37.7711 53.2299 37.7055 55.1888C35.6576 56.9901 34.2643 59.5181 33.932 62.3657C33.5503 61.8462 33.1958 61.3045 32.8723 60.7439C30.3228 56.3281 29.8381 51.0954 31.515 46.2975C34.1539 46.7993 36.6451 47.9029 38.7788 49.5154V49.5155ZM29.918 68.1257C25.5022 65.5762 22.466 61.2869 21.5193 56.2932C24.0547 55.4088 26.763 55.1189 29.4161 55.4477C29.8012 57.5337 30.5422 59.5654 31.635 61.4581C32.2803 62.5756 33.0389 63.6239 33.89 64.58C34.0557 66.6863 34.8006 68.6323 35.9653 70.2582C33.8425 69.9338 31.8145 69.2206 29.9179 68.1256L29.918 68.1257ZM45.1697 73.5712C39.7182 73.5712 35.2833 69.1362 35.2833 63.6848C35.2833 58.2333 39.7183 53.7985 45.1697 53.7985C50.621 53.7985 55.056 58.2335 55.056 63.6848C55.056 69.1361 50.621 73.5712 45.1697 73.5712ZM60.4213 68.1257C58.5247 69.2207 56.4968 69.9339 54.3741 70.2583C55.5387 68.6323 56.2836 66.6864 56.4493 64.5801C57.3005 63.6239 58.0592 62.5756 58.7043 61.4582C59.797 59.5654 60.5381 57.5337 60.9232 55.4477C63.5763 55.1186 66.2847 55.4087 68.82 56.2932C67.8733 61.2868 64.8372 65.5762 60.4213 68.1257ZM45.1697 54.9737C40.3663 54.9737 36.4586 58.8814 36.4586 63.6848C36.4586 68.4881 40.3664 72.396 45.1697 72.396C49.9729 72.396 53.8807 68.4882 53.8807 63.6848C53.8807 58.8813 49.9729 54.9737 45.1697 54.9737ZM45.1697 70.9674C41.1541 70.9674 37.8872 67.7005 37.8872 63.6848C37.8872 59.669 41.1541 56.4023 45.1697 56.4023C49.1853 56.4023 52.4522 59.6692 52.4522 63.6848C52.4522 67.7004 49.1853 70.9674 45.1697 70.9674ZM44.4554 63.6848V59.6C44.4554 59.2056 44.7753 58.8857 45.1697 58.8857C45.5641 58.8857 45.8839 59.2056 45.8839 59.6V62.9705H47.5963C47.9907 62.9705 48.3106 63.2904 48.3106 63.6848C48.3106 64.0792 47.9907 64.399 47.5963 64.399H45.1697C44.7753 64.399 44.4554 64.0792 44.4554 63.6848ZM44.4554 57.5165V57.5033C44.4554 57.1089 44.7753 56.789 45.1697 56.789C45.5641 56.789 45.8839 57.1089 45.8839 57.5033V57.5165C45.8839 57.911 45.5641 58.2308 45.1697 58.2308C44.7753 58.2308 44.4554 57.911 44.4554 57.5165ZM48.8794 58.688L48.8728 58.6995C48.7406 58.929 48.5003 59.0575 48.253 59.0575C48.1322 59.0575 48.0097 59.0268 47.8973 58.9621C47.5554 58.7652 47.4379 58.3286 47.6347 57.9867L47.6413 57.9751C47.8382 57.6333 48.2749 57.5155 48.6167 57.7126C48.9586 57.9094 49.0762 58.3461 48.8794 58.688ZM49.8925 60.9573C49.6957 60.6154 49.8132 60.1787 50.1551 59.9819L50.1667 59.9752C50.5083 59.7781 50.9453 59.8959 51.142 60.2377C51.3388 60.5796 51.2213 61.0163 50.8794 61.2131L50.8679 61.2198C50.7556 61.2845 50.633 61.3152 50.5122 61.3152C50.265 61.3152 50.0247 61.1868 49.8925 60.9573ZM52.0655 63.6849C52.0655 64.0793 51.7456 64.3992 51.3512 64.3992H51.338C50.9436 64.3992 50.6237 64.0793 50.6237 63.6849C50.6237 63.2905 50.9436 62.9706 51.338 62.9706H51.3512C51.7456 62.9706 52.0655 63.2905 52.0655 63.6849ZM51.142 67.1321C51.0099 67.3617 50.7695 67.4901 50.5224 67.4901C50.4014 67.4901 50.2789 67.4594 50.1667 67.3946L50.1551 67.388C49.8132 67.1912 49.6957 66.7545 49.8925 66.4126C50.0893 66.071 50.5261 65.9531 50.8679 66.1501L50.8794 66.1568C51.2213 66.3536 51.3388 66.7902 51.142 67.1321ZM48.8794 68.6819C49.0762 69.0238 48.9587 69.4605 48.6168 69.6574C48.5045 69.722 48.3819 69.7527 48.2611 69.7527C48.0138 69.7527 47.7736 69.6243 47.6413 69.3948L47.6347 69.3832C47.4379 69.0413 47.5554 68.6046 47.8973 68.4079C48.2389 68.2106 48.6757 68.3286 48.8726 68.6704L48.8794 68.6819ZM45.8839 69.8533V69.8664C45.8839 70.2608 45.5641 70.5807 45.1697 70.5807C44.7753 70.5807 44.4554 70.2608 44.4554 69.8664V69.8533C44.4554 69.4589 44.7753 69.139 45.1697 69.139C45.5641 69.139 45.8839 69.4589 45.8839 69.8533ZM42.7058 69.3808L42.6993 69.3924C42.5675 69.6233 42.3264 69.7527 42.0783 69.7527C41.9583 69.7527 41.8367 69.7224 41.7249 69.6587C41.3823 69.4631 41.2631 69.0269 41.4586 68.6843L41.4651 68.6727C41.6606 68.3299 42.097 68.2111 42.4395 68.4064C42.7822 68.602 42.9013 69.0382 42.7058 69.3808ZM40.446 66.4114C40.6436 66.7529 40.5269 67.1898 40.1855 67.3874L40.1741 67.394C40.0614 67.4592 39.9383 67.4902 39.8169 67.4902C39.5703 67.4902 39.3304 67.3624 39.198 67.1336C39.0004 66.7921 39.117 66.3552 39.4585 66.1576L39.4699 66.151C39.8112 65.9537 40.2486 66.07 40.446 66.4114ZM39.0014 64.3993H38.9881C38.5937 64.3993 38.2738 64.0794 38.2738 63.685C38.2738 63.2906 38.5937 62.9707 38.9881 62.9707H39.0014C39.3958 62.9707 39.7157 63.2906 39.7157 63.685C39.7157 64.0794 39.3958 64.3993 39.0014 64.3993ZM40.446 60.9587C40.3136 61.1875 40.0737 61.3154 39.8272 61.3154C39.7057 61.3154 39.5828 61.2844 39.47 61.2192L39.4586 61.2125C39.1172 61.0149 39.0005 60.578 39.1981 60.2365C39.3957 59.8952 39.8324 59.7782 40.1742 59.9761L40.1856 59.9827C40.527 60.1804 40.6437 60.6173 40.4461 60.9587H40.446ZM42.7058 57.9893C42.9014 58.3319 42.7822 58.7681 42.4395 58.9637C42.3279 59.0274 42.2062 59.0577 42.0861 59.0577C41.838 59.0577 41.5969 58.9283 41.4651 58.6974L41.4586 58.6858C41.263 58.3432 41.3823 57.907 41.7249 57.7114C42.0675 57.516 42.5037 57.6349 42.6993 57.9777L42.7058 57.9893Z" fill="#E9582A"/>
</svg>
